<?xml version="1.0" standalone="no"?>
<!DOCTYPE svg PUBLIC "-//W3C//DTD SVG 1.1//EN" "http://www.w3.org/Graphics/SVG/1.1/DTD/svg11.dtd" >
<svg xmlns="http://www.w3.org/2000/svg">
<metadata>
This is a custom SVG webfont generated by Font Squirrel.
Copyright   : Copyright c 2006 by Nevisa All rights reserved
Designer    : Hadi Navid Hooman Mehr Salman
Foundry     : Nevisa  Zeetova
Foundry URL : httpwwwzeetovair
</metadata>
<defs>
<font id="webfontKyjHLbEM" horiz-adv-x="636" >
<font-face units-per-em="1000" ascent="800" descent="-200" />
<missing-glyph horiz-adv-x="318" />
<glyph unicode="&#xfe8b;&#xfbfd;" horiz-adv-x="1153" arabic-form="isolated" d="M1016 435q38 -76 56 -128t18 -79q0 -34 -12.5 -64t-34.5 -52.5t-51.5 -35.5t-63.5 -13q-14 0 -49 6.5l-74 14l-74 14t-50 6.5q-18 0 -33 -5t-19 -17q57 -33 86.5 -64.5t29.5 -67.5q0 -24 -21 -43.5t-55.5 -35t-79.5 -27t-93 -19t-96 -9t-89 -1.5q-55 0 -101 9t-79.5 32.5 t-52 59t-18.5 84.5q0 34 7.5 68.5t19.5 65.5t25.5 58t25.5 47l60 -28l-21.5 -40t-21 -48.5t-16 -57.5t-6.5 -65q0 -25 14 -43t38 -30t56.5 -18t69.5 -6q34 0 74 1.5l80 3t77.5 4.5t66 6t45.5 13.5t17 18.5q0 7 -35 30l-94 64l17 62q16 51 50 71.5t72 20.5q16 0 51 -6.5 t73 -14.5t72.5 -14.5t50.5 -6.5q37 0 63 21t26 51q0 15 -16 56t-50 108zM953 576q-26 -5 -48.5 -10t-48.5 -13.5t-59.5 -22.5t-82.5 -37l-22 57q21 11 38 19l32 15q-18 15 -30 34t-12 42q0 22 11 43.5t28 38t36 27t36 10.5q39 0 59.5 -15.5t40.5 -38.5l-37 -41 q-12 14 -24.5 22.5t-38.5 8.5q-9 0 -19.5 -4.5t-20 -12t-15.5 -17.5t-6 -21q0 -12 18.5 -24t45.5 -23q31 10 57.5 15t52.5 11z" />
<glyph unicode="&#xfe8c;&#xfbfd;" horiz-adv-x="1095" arabic-form="final" d="M1095 47q-40 0 -70.5 12t-54 31.5t-41.5 43.5t-33 48q-11 18 -24.5 36.5t-32.5 33.5t-45.5 24t-63.5 9q-34 0 -69.5 -6t-64 -17.5t-47 -28t-18.5 -37.5q0 -5 2.5 -8.5t10.5 -8t23.5 -9.5t41.5 -12q49 -14 77 -26.5t42 -28t18 -36t4 -49.5q0 -32 -23 -58t-61 -46.5 t-86.5 -36t-99 -25.5t-100 -15t-88.5 -5q-115 0 -173.5 47t-58.5 138q0 34 7.5 68.5t19.5 66t25.5 58.5t25.5 47l60 -28l-21.5 -40.5t-21 -48.5t-16 -56.5t-6.5 -66.5q0 -45 39 -68.5t120 -23.5q33 0 74.5 2t84 5t83.5 10.5t72.5 19t51 26t19.5 30.5q0 7 -3 12.5t-12 11 t-26.5 11.5t-45.5 14q-44 12 -70 24t-40 27t-18 33.5t-4 44.5q0 41 25 75t64.5 58t87.5 37t95 13q51 0 87 -12.5t62.5 -33.5t45 -47.5t34.5 -54.5l22.5 -33.5t26.5 -29t36 -20t51 -7.5v-94zM863 572q-26 -5 -48.5 -10t-48.5 -13.5t-59.5 -22.5t-82.5 -37l-22 57q21 11 38 19 l32 15q-18 15 -30 34t-12 42q0 22 11 43.5t28 38t36 27t36 10.5q39 0 59.5 -15.5t40.5 -38.5l-37 -41q-12 14 -24.5 22.5t-38.5 8.5q-9 0 -19.5 -4.5t-20 -12t-15.5 -17.5t-6 -21q0 -12 18.5 -24t45.5 -23q31 10 57.5 15t52.5 11z" />
<glyph unicode="&#xfe91;&#xfbfd;" horiz-adv-x="1153" arabic-form="isolated" d="M1016 435q38 -76 56 -128t18 -79q0 -34 -12.5 -64t-34.5 -52.5t-51.5 -35.5t-63.5 -13q-14 0 -49 6.5l-74 14l-74 14t-50 6.5q-18 0 -33 -5t-19 -17q57 -33 86.5 -64.5t29.5 -67.5q0 -24 -21 -43.5t-55.5 -35t-79.5 -27t-93 -19t-96 -9t-89 -1.5q-55 0 -101 9t-79.5 32.5 t-52 59t-18.5 84.5q0 34 7.5 68.5t19.5 65.5t25.5 58t25.5 47l60 -28l-21.5 -40t-21 -48.5t-16 -57.5t-6.5 -65q0 -25 14 -43t38 -30t56.5 -18t69.5 -6q34 0 74 1.5l80 3t77.5 4.5t66 6t45.5 13.5t17 18.5q0 7 -35 30l-94 64l17 62q16 51 50 71.5t72 20.5q16 0 51 -6.5 t73 -14.5t72.5 -14.5t50.5 -6.5q37 0 63 21t26 51q0 15 -16 56t-50 108zM1001 -175h-98v98h98v-98z" />
<glyph unicode="&#xfe97;&#xfbfd;" horiz-adv-x="1153" arabic-form="isolated" d="M1016 435q38 -76 56 -128t18 -79q0 -34 -12.5 -64t-34.5 -52.5t-51.5 -35.5t-63.5 -13q-14 0 -49 6.5l-74 14l-74 14t-50 6.5q-18 0 -33 -5t-19 -17q57 -33 86.5 -64.5t29.5 -67.5q0 -24 -21 -43.5t-55.5 -35t-79.5 -27t-93 -19t-96 -9t-89 -1.5q-55 0 -101 9t-79.5 32.5 t-52 59t-18.5 84.5q0 34 7.5 68.5t19.5 65.5t25.5 58t25.5 47l60 -28l-21.5 -40t-21 -48.5t-16 -57.5t-6.5 -65q0 -25 14 -43t38 -30t56.5 -18t69.5 -6q34 0 74 1.5l80 3t77.5 4.5t66 6t45.5 13.5t17 18.5q0 7 -35 30l-94 64l17 62q16 51 50 71.5t72 20.5q16 0 51 -6.5 t73 -14.5t72.5 -14.5t50.5 -6.5q37 0 63 21t26 51q0 15 -16 56t-50 108zM804 527h-98v98h98v-98zM948 527h-98v98h98v-98z" />
<glyph unicode="&#xfe9b;&#xfbfd;" horiz-adv-x="1153" arabic-form="isolated" d="M1016 435q38 -76 56 -128t18 -79q0 -34 -12.5 -64t-34.5 -52.5t-51.5 -35.5t-63.5 -13q-14 0 -49 6.5l-74 14l-74 14t-50 6.5q-18 0 -33 -5t-19 -17q57 -33 86.5 -64.5t29.5 -67.5q0 -24 -21 -43.5t-55.5 -35t-79.5 -27t-93 -19t-96 -9t-89 -1.5q-55 0 -101 9t-79.5 32.5 t-52 59t-18.5 84.5q0 34 7.5 68.5t19.5 65.5t25.5 58t25.5 47l60 -28l-21.5 -40t-21 -48.5t-16 -57.5t-6.5 -65q0 -25 14 -43t38 -30t56.5 -18t69.5 -6q34 0 74 1.5l80 3t77.5 4.5t66 6t45.5 13.5t17 18.5q0 7 -35 30l-94 64l17 62q16 51 50 71.5t72 20.5q16 0 51 -6.5 t73 -14.5t72.5 -14.5t50.5 -6.5q37 0 63 21t26 51q0 15 -16 56t-50 108zM800 532h-98v98h98v-98zM952 532h-98v98h98v-98zM875 680h-97v98h97v-98z" />
<glyph unicode="&#xfb90;&#xfbfd;" horiz-adv-x="1315" arabic-form="isolated" d="M1291 705q-41 -15 -87 -37t-93.5 -48t-95 -55.5l-91.5 -59.5q45 -26 85.5 -55t71.5 -62.5t49 -73t18 -86.5q0 -49 -24 -81t-58.5 -50.5t-72.5 -26t-65 -7.5q-14 0 -49 6.5l-74 14l-74 14t-50 6.5q-18 0 -33 -5t-19 -17q57 -33 86.5 -64.5t29.5 -67.5q0 -24 -21 -43.5 t-55.5 -35t-79.5 -27t-93 -19t-96 -11.5t-89 -4q-55 0 -101 11.5t-79.5 35t-52 59t-18.5 84.5q0 34 7.5 68.5t19.5 65.5t25.5 58t25.5 47l60 -28l-21.5 -40t-21 -48.5t-16 -57.5t-6.5 -65q0 -25 14 -43t38 -30t56.5 -18t69.5 -6q34 0 74 1.5t80 2t77.5 3t66 8t45.5 15 t17 17.5q0 7 -36 28t-103 55l27 73q16 51 50 71.5t72 20.5q16 0 51 -8.5t73 -19t72.5 -12.5t50.5 -2q17 0 42 3.5t47.5 12t38.5 22t16 34.5q0 33 -17.5 61.5t-47.5 54.5t-70.5 50.5l-86.5 50.5l12 125l103 67.5t105.5 62.5t102.5 53.5t94 40.5z" />
<glyph unicode="&#xfedf;&#xfbfd;" horiz-adv-x="1030" arabic-form="isolated" d="M861 760h76v-514q0 -43 -20 -72t-49.5 -46.5t-62 -25t-56.5 -7.5q-19 0 -40 4.5t-35 4.5t-27.5 -5t-17.5 -17q57 -33 86.5 -64.5t29.5 -67.5q0 -24 -21 -43.5t-55.5 -35t-79.5 -27t-93 -19t-96 -11.5t-89 -4q-55 0 -101 11.5t-79.5 35t-52 59t-18.5 84.5q0 34 7.5 68.5 t19.5 65.5t25.5 58t25.5 47l60 -28l-21.5 -40t-21 -48.5t-16 -57.5t-6.5 -65q0 -25 14 -43t38 -30t56.5 -18t69.5 -6q34 0 74 1.5t80 1.5t77.5 2.5t66 9.5t45.5 15.5t17 16.5q0 7 -36 28t-103 55l27 73q8 25 21 42.5t28.5 28.5t32.5 16t33 5q13 0 34 -5t41 -5q15 0 34.5 3 t36.5 10t29 18t12 27v514z" />
<glyph unicode="&#xfee3;&#xfbfd;" horiz-adv-x="1264" arabic-form="isolated" d="M559 106q16 51 50 71.5t72 20.5q29 0 57.5 -7t58.5 -7q23 0 40.5 4t27.5 16l47.5 59.5t45 52.5t46 37.5t50.5 14.5q24 0 49.5 -17.5t47 -45.5t35 -63.5t13.5 -72.5q0 -70 -26.5 -102.5t-74.5 -32.5q-11 0 -30.5 1.5t-45.5 10t-56.5 27t-62.5 52.5q-24 -21 -51 -28t-55 -7 q-29 0 -58 7t-58 7q-18 0 -33 -5t-19 -17q57 -33 86.5 -64.5t29.5 -67.5q0 -24 -21 -43.5t-55.5 -35t-79.5 -27t-93 -19t-96 -11.5t-89 -4q-55 0 -101 11.5t-79.5 35t-52 59t-18.5 84.5q0 34 7.5 68.5t19.5 65.5t25.5 58t25.5 47l60 -28l-21.5 -40t-21 -48.5t-16 -57.5 t-6.5 -65q0 -25 14 -43t38 -30t56.5 -18t69.5 -6q34 0 74 1.5t80 4t77.5 6t66 9t45.5 12t17 14.5q0 7 -36 28t-103 55zM956 188q22 -22 44 -34t41 -18t34 -7t23 -1q27 0 27 41q0 19 -6.5 38t-17 34t-23 24t-24.5 9q-22 0 -46 -26t-52 -60z" />
<glyph unicode="&#xfee7;&#xfbfd;" horiz-adv-x="1153" arabic-form="isolated" d="M1016 435q38 -76 56 -128t18 -79q0 -34 -12.5 -64t-34.5 -52.5t-51.5 -35.5t-63.5 -13q-14 0 -49 6.5l-74 14l-74 14t-50 6.5q-18 0 -33 -5t-19 -17q57 -33 86.5 -64.5t29.5 -67.5q0 -24 -21 -43.5t-55.5 -35t-79.5 -27t-93 -19t-96 -9t-89 -1.5q-55 0 -101 9t-79.5 32.5 t-52 59t-18.5 84.5q0 34 7.5 68.5t19.5 65.5t25.5 58t25.5 47l60 -28l-21.5 -40t-21 -48.5t-16 -57.5t-6.5 -65q0 -25 14 -43t38 -30t56.5 -18t69.5 -6q34 0 74 1.5l80 3t77.5 4.5t66 6t45.5 13.5t17 18.5q0 7 -35 30l-94 64l17 62q16 51 50 71.5t72 20.5q16 0 51 -6.5 t73 -14.5t72.5 -14.5t50.5 -6.5q37 0 63 21t26 51q0 15 -16 56t-50 108zM875 531h-98v98h98v-98z" />
<glyph unicode="&#xfbfe;&#xfbfd;" horiz-adv-x="1153" arabic-form="isolated" d="M1016 435q38 -76 56 -128t18 -79q0 -34 -12.5 -64t-34.5 -52.5t-51.5 -35.5t-63.5 -13q-14 0 -49 6.5l-74 14l-74 14t-50 6.5q-18 0 -33 -5t-19 -17q57 -33 86.5 -64.5t29.5 -67.5q0 -24 -21 -43.5t-55.5 -35t-79.5 -27t-93 -19t-96 -9t-89 -1.5q-55 0 -101 9t-79.5 32.5 t-52 59t-18.5 84.5q0 34 7.5 68.5t19.5 65.5t25.5 58t25.5 47l60 -28l-21.5 -40t-21 -48.5t-16 -57.5t-6.5 -65q0 -25 14 -43t38 -30t56.5 -18t69.5 -6q34 0 74 1.5l80 3t77.5 4.5t66 6t45.5 13.5t17 18.5q0 7 -35 30l-94 64l17 62q16 51 50 71.5t72 20.5q16 0 51 -6.5 t73 -14.5t72.5 -14.5t50.5 -6.5q37 0 63 21t26 51q0 15 -16 56t-50 108zM925 -174h-98v98h98v-98zM1069 -174h-98v98h98v-98z" />
<glyph unicode="&#xfbe8;&#xfbfd;" horiz-adv-x="1153" arabic-form="isolated" d="M1016 435q38 -76 56 -128t18 -79q0 -34 -12.5 -64t-34.5 -52.5t-51.5 -35.5t-63.5 -13q-14 0 -49 6.5l-74 14l-74 14t-50 6.5q-18 0 -33 -5t-19 -17q57 -33 86.5 -64.5t29.5 -67.5q0 -24 -21 -43.5t-55.5 -35t-79.5 -27t-93 -19t-96 -9t-89 -1.5q-55 0 -101 9t-79.5 32.5 t-52 59t-18.5 84.5q0 34 7.5 68.5t19.5 65.5t25.5 58t25.5 47l60 -28l-21.5 -40t-21 -48.5t-16 -57.5t-6.5 -65q0 -25 14 -43t38 -30t56.5 -18t69.5 -6q34 0 74 1.5l80 3t77.5 4.5t66 6t45.5 13.5t17 18.5q0 7 -35 30l-94 64l17 62q16 51 50 71.5t72 20.5q16 0 51 -6.5 t73 -14.5t72.5 -14.5t50.5 -6.5q37 0 63 21t26 51q0 15 -16 56t-50 108z" />
<glyph unicode="&#xfbe9;&#xfbfd;" horiz-adv-x="1095" arabic-form="final" d="M1095 47q-40 0 -70.5 12t-54 31.5t-41.5 43.5t-33 48q-11 18 -24.5 36.5t-32.5 33.5t-45.5 24t-63.5 9q-34 0 -69.5 -6t-64 -17.5t-47 -28t-18.5 -37.5q0 -5 2.5 -8.5t10.5 -8t23.5 -9.5t41.5 -12q49 -14 77 -26.5t42 -28t18 -36t4 -49.5q0 -32 -23 -58t-61 -46.5 t-86.5 -36t-99 -25.5t-100 -15t-88.5 -5q-115 0 -173.5 47t-58.5 138q0 34 7.5 68.5t19.5 66t25.5 58.5t25.5 47l60 -28l-21.5 -40.5t-21 -48.5t-16 -56.5t-6.5 -66.5q0 -45 39 -68.5t120 -23.5q33 0 74.5 2t84 5t83.5 10.5t72.5 19t51 26t19.5 30.5q0 7 -3 12.5t-12 11 t-26.5 11.5t-45.5 14q-44 12 -70 24t-40 27t-18 33.5t-4 44.5q0 41 25 75t64.5 58t87.5 37t95 13q51 0 87 -12.5t62.5 -33.5t45 -47.5t34.5 -54.5l22.5 -33.5t26.5 -29t36 -20t51 -7.5v-94z" />
<glyph unicode="&#xfe92;&#xfbfd;" horiz-adv-x="1095" arabic-form="final" d="M1095 47q-40 0 -70.5 12t-54 31.5t-41.5 43.5t-33 48q-11 18 -24.5 36.5t-32.5 33.5t-45.5 24t-63.5 9q-34 0 -69.5 -6t-64 -17.5t-47 -28t-18.5 -37.5q0 -5 2.5 -8.5t10.5 -8t23.5 -9.5t41.5 -12q49 -14 77 -26.5t42 -28t18 -36t4 -49.5q0 -32 -23 -58t-61 -46.5 t-86.5 -36t-99 -25.5t-100 -15t-88.5 -5q-115 0 -173.5 47t-58.5 138q0 34 7.5 68.5t19.5 66t25.5 58.5t25.5 47l60 -28l-21.5 -40.5t-21 -48.5t-16 -56.5t-6.5 -66.5q0 -45 39 -68.5t120 -23.5q33 0 74.5 2t84 5t83.5 10.5t72.5 19t51 26t19.5 30.5q0 7 -3 12.5t-12 11 t-26.5 11.5t-45.5 14q-44 12 -70 24t-40 27t-18 33.5t-4 44.5q0 41 25 75t64.5 58t87.5 37t95 13q51 0 87 -12.5t62.5 -33.5t45 -47.5t34.5 -54.5l22.5 -33.5t26.5 -29t36 -20t51 -7.5v-94zM932 -174h-98v98h98v-98z" />
<glyph unicode="&#xfe98;&#xfbfd;" horiz-adv-x="1095" arabic-form="final" d="M1095 47q-40 0 -70.5 12t-54 31.5t-41.5 43.5t-33 48q-11 18 -24.5 36.5t-32.5 33.5t-45.5 24t-63.5 9q-34 0 -69.5 -6t-64 -17.5t-47 -28t-18.5 -37.5q0 -5 2.5 -8.5t10.5 -8t23.5 -9.5t41.5 -12q49 -14 77 -26.5t42 -28t18 -36t4 -49.5q0 -32 -23 -58t-61 -46.5 t-86.5 -36t-99 -25.5t-100 -15t-88.5 -5q-115 0 -173.5 47t-58.5 138q0 34 7.5 68.5t19.5 66t25.5 58.5t25.5 47l60 -28l-21.5 -40.5t-21 -48.5t-16 -56.5t-6.5 -66.5q0 -45 39 -68.5t120 -23.5q33 0 74.5 2t84 5t83.5 10.5t72.5 19t51 26t19.5 30.5q0 7 -3 12.5t-12 11 t-26.5 11.5t-45.5 14q-44 12 -70 24t-40 27t-18 33.5t-4 44.5q0 41 25 75t64.5 58t87.5 37t95 13q51 0 87 -12.5t62.5 -33.5t45 -47.5t34.5 -54.5l22.5 -33.5t26.5 -29t36 -20t51 -7.5v-94zM706 528h-98v98h98v-98zM850 528h-98v98h98v-98z" />
<glyph unicode="&#xfe9c;&#xfbfd;" horiz-adv-x="1095" arabic-form="final" d="M1095 47q-40 0 -70.5 12t-54 31.5t-41.5 43.5t-33 48q-11 18 -24.5 36.5t-32.5 33.5t-45.5 24t-63.5 9q-34 0 -69.5 -6t-64 -17.5t-47 -28t-18.5 -37.5q0 -5 2.5 -8.5t10.5 -8t23.5 -9.5t41.5 -12q49 -14 77 -26.5t42 -28t18 -36t4 -49.5q0 -32 -23 -58t-61 -46.5 t-86.5 -36t-99 -25.5t-100 -15t-88.5 -5q-115 0 -173.5 47t-58.5 138q0 34 7.5 68.5t19.5 66t25.5 58.5t25.5 47l60 -28l-21.5 -40.5t-21 -48.5t-16 -56.5t-6.5 -66.5q0 -45 39 -68.5t120 -23.5q33 0 74.5 2t84 5t83.5 10.5t72.5 19t51 26t19.5 30.5q0 7 -3 12.5t-12 11 t-26.5 11.5t-45.5 14q-44 12 -70 24t-40 27t-18 33.5t-4 44.5q0 41 25 75t64.5 58t87.5 37t95 13q51 0 87 -12.5t62.5 -33.5t45 -47.5t34.5 -54.5l22.5 -33.5t26.5 -29t36 -20t51 -7.5v-94zM702 527h-98v98h98v-98zM854 527h-98v98h98v-98zM777 675h-97v98h97v-98z" />
<glyph unicode="&#xfb91;&#xfbfd;" horiz-adv-x="1377" arabic-form="final" d="M1377 47q-54 0 -88 18t-57.5 45.5t-42 60t-41.5 61.5q0 -50 -24 -83t-58.5 -52t-72.5 -26.5t-65 -7.5q-14 0 -49 6.5l-74 14l-74 14t-50 6.5q-18 0 -33 -5t-19 -17q57 -33 86.5 -64.5t29.5 -67.5q0 -24 -21 -43.5t-55.5 -35t-79.5 -27t-93 -19t-96 -11.5t-89 -4 q-55 0 -101 11.5t-79.5 35t-52 59t-18.5 84.5q0 34 7.5 68.5t19.5 65.5t25.5 58t25.5 47l60 -28l-21.5 -40t-21 -48.5t-16 -57.5t-6.5 -65q0 -25 14 -43t38 -30t56.5 -18t69.5 -6q34 0 74 1.5t80 4t77.5 6t66 9t45.5 12t17 14.5q0 7 -36 31l-96 63l20 62q16 51 50 71.5 t72 20.5q16 0 51 -6.5t73 -14.5t72.5 -14.5t50.5 -6.5q17 0 42 3.5t47.5 12t38.5 22t16 34.5q0 33 -17.5 61.5t-47.5 54.5t-70.5 50.5l-86.5 50.5l12 125l103 67.5t105.5 62.5t102.5 53.5t94 40.5l24 -89q-41 -15 -87 -37t-93.5 -48.5l-95 -55.5l-92.5 -59q39 -23 86 -54 t92.5 -67.5t85 -77.5t63.5 -83q9 -15 19.5 -30t25.5 -26.5t35 -18.5t47 -7v-94z" />
<glyph unicode="&#xfee0;&#xfbfd;" horiz-adv-x="1056" arabic-form="final" d="M854 134q-21 -18 -48.5 -24t-58.5 -6h-73q-14 0 -27.5 -5t-17.5 -17q57 -33 86.5 -64.5t29.5 -67.5q0 -24 -21 -43.5t-55.5 -35t-79.5 -27t-93 -19t-96 -11.5t-89 -4q-55 0 -101 11.5t-79.5 35t-52 59t-18.5 84.5q0 34 7.5 68.5t19.5 65.5t25.5 58t25.5 47l60 -28 l-21.5 -40t-21 -48.5t-16 -57.5t-6.5 -65q0 -25 14 -43t38 -30t56.5 -18t69.5 -6q34 0 74 1.5t80 4t77.5 6t66 9t45.5 12t17 14.5q0 7 -36 28t-103 55l27 73q8 25 21 42.5t28.5 28.5t32.5 16t33 5h73q18 0 33.5 3.5t27 15t18.5 32t7 54.5v457h75v-492q0 -30 6 -54t22.5 -40 t45.5 -24.5t74 -8.5v-94q-69 0 -119.5 18.5t-82.5 68.5z" />
<glyph unicode="&#xfee8;&#xfbfd;" horiz-adv-x="1095" arabic-form="final" d="M1095 47q-40 0 -70.5 12t-54 31.5t-41.5 43.5t-33 48q-11 18 -24.5 36.5t-32.5 33.5t-45.5 24t-63.5 9q-34 0 -69.5 -6t-64 -17.5t-47 -28t-18.5 -37.5q0 -5 2.5 -8.5t10.5 -8t23.5 -9.5t41.5 -12q49 -14 77 -26.5t42 -28t18 -36t4 -49.5q0 -32 -23 -58t-61 -46.5 t-86.5 -36t-99 -25.5t-100 -15t-88.5 -5q-115 0 -173.5 47t-58.5 138q0 34 7.5 68.5t19.5 66t25.5 58.5t25.5 47l60 -28l-21.5 -40.5t-21 -48.5t-16 -56.5t-6.5 -66.5q0 -45 39 -68.5t120 -23.5q33 0 74.5 2t84 5t83.5 10.5t72.5 19t51 26t19.5 30.5q0 7 -3 12.5t-12 11 t-26.5 11.5t-45.5 14q-44 12 -70 24t-40 27t-18 33.5t-4 44.5q0 41 25 75t64.5 58t87.5 37t95 13q51 0 87 -12.5t62.5 -33.5t45 -47.5t34.5 -54.5l22.5 -33.5t26.5 -29t36 -20t51 -7.5v-94zM778 526h-98v98h98v-98z" />
<glyph unicode="&#xfbff;&#xfbfd;" horiz-adv-x="1095" arabic-form="final" d="M1095 47q-40 0 -70.5 12t-54 31.5t-41.5 43.5t-33 48q-11 18 -24.5 36.5t-32.5 33.5t-45.5 24t-63.5 9q-34 0 -69.5 -6t-64 -17.5t-47 -28t-18.5 -37.5q0 -5 2.5 -8.5t10.5 -8t23.5 -9.5t41.5 -12q49 -14 77 -26.5t42 -28t18 -36t4 -49.5q0 -32 -23 -58t-61 -46.5 t-86.5 -36t-99 -25.5t-100 -15t-88.5 -5q-115 0 -173.5 47t-58.5 138q0 34 7.5 68.5t19.5 66t25.5 58.5t25.5 47l60 -28l-21.5 -40.5t-21 -48.5t-16 -56.5t-6.5 -66.5q0 -45 39 -68.5t120 -23.5q33 0 74.5 2t84 5t83.5 10.5t72.5 19t51 26t19.5 30.5q0 7 -3 12.5t-12 11 t-26.5 11.5t-45.5 14q-44 12 -70 24t-40 27t-18 33.5t-4 44.5q0 41 25 75t64.5 58t87.5 37t95 13q51 0 87 -12.5t62.5 -33.5t45 -47.5t34.5 -54.5l22.5 -33.5t26.5 -29t36 -20t51 -7.5v-94zM864 -179h-98v98h98v-98zM1008 -179h-98v98h98v-98z" />
<glyph unicode="&#xfeb3;&#xfbfd;" horiz-adv-x="1528" arabic-form="isolated" d="M1038 47q-45 0 -74.5 12.5t-49.5 32.5t-32.5 46t-23.5 53q-6 17 -15 34t-23.5 30.5t-36.5 21.5t-53 8q-34 0 -69.5 -6t-64 -17.5t-47 -28t-18.5 -37.5q0 -5 2.5 -8.5t10.5 -8t23.5 -9.5t41.5 -12q49 -14 77 -26.5t42 -28t18 -36t4 -49.5q0 -32 -23 -58t-61 -46.5 t-86.5 -36t-99 -25.5t-100 -15t-88.5 -5q-115 0 -173.5 47t-58.5 138q0 34 7.5 68.5t19.5 66t25.5 58.5t25.5 47l60 -28l-21.5 -40.5t-21 -48.5t-16 -56.5t-6.5 -66.5q0 -45 39 -68.5t120 -23.5q33 0 74.5 2t84 3.5t83.5 9t72.5 18t51 27.5t19.5 33q0 7 -3 12.5t-12 11 t-26.5 11.5t-45.5 14q-44 12 -70 24t-40 27t-18 33.5t-4 44.5q0 41 25 75t64.5 58t87.5 37t95 13q49 0 82 -13.5t55 -35t35.5 -49t24.5 -55.5q6 -17 13.5 -32.5t19.5 -27t30.5 -18.5t47.5 -7q21 0 37.5 9t28 21.5t17 26t5.5 23.5v71h76v-76q0 -21 7.5 -35.5t19.5 -23 t26.5 -12.5t29.5 -4q21 0 40 5.5t34 14.5t23.5 21t8.5 26q0 32 -11.5 80t-33.5 118l78 7q13 -38 21.5 -67t13.5 -53t7 -44t2 -41q0 -32 -15 -61.5t-40.5 -51.5t-58.5 -35t-69 -13q-35 0 -70 14t-58 47q-20 -27 -50 -44t-69 -17z" />
<glyph unicode="&#xfeb7;&#xfbfd;" horiz-adv-x="1528" arabic-form="isolated" d="M1038 47q-45 0 -74.5 12.5t-49.5 32.5t-32.5 46t-23.5 53q-6 17 -15 34t-23.5 30.5t-36.5 21.5t-53 8q-34 0 -69.5 -6t-64 -17.5t-47 -28t-18.5 -37.5q0 -5 2.5 -8.5t10.5 -8t23.5 -9.5t41.5 -12q49 -14 77 -26.5t42 -28t18 -36t4 -49.5q0 -32 -23 -58t-61 -46.5 t-86.5 -36t-99 -25.5t-100 -15t-88.5 -5q-115 0 -173.5 47t-58.5 138q0 34 7.5 68.5t19.5 66t25.5 58.5t25.5 47l60 -28l-21.5 -40.5t-21 -48.5t-16 -56.5t-6.5 -66.5q0 -45 39 -68.5t120 -23.5q33 0 74.5 2.5t84 8t83.5 13t72.5 18t51 23t19.5 28.5q0 7 -3 12.5t-12 11 t-26.5 11.5t-45.5 14q-44 12 -70 24t-40 27t-18 33.5t-4 44.5q0 41 25 75t64.5 58t87.5 37t95 13q49 0 82 -13.5t55 -35t35.5 -49t24.5 -55.5q6 -17 13.5 -32.5t19.5 -27t30.5 -18.5t47.5 -7q21 0 37.5 9t28 21.5t17 26t5.5 23.5v71h76v-76q0 -21 7.5 -35.5t19.5 -23 t26.5 -12.5t29.5 -4q21 0 40 5.5t34 14.5t23.5 21t8.5 26q0 32 -11.5 80t-33.5 118l78 7q13 -38 21.5 -67t13.5 -53t7 -44t2 -41q0 -32 -15 -61.5t-40.5 -51.5t-58.5 -35t-69 -13q-35 0 -70 14t-58 47q-20 -27 -50 -44t-69 -17zM1074 470h-98v98h98v-98zM1226 470h-98v98h98 v-98zM1149 618h-97v98h97v-98z" />
<glyph unicode="&#xfebb;&#xfbfd;" horiz-adv-x="1620" arabic-form="isolated" d="M1051 47q-45 0 -77 12.5t-55 32.5t-38 46t-26 53q-6 17 -14.5 34t-22.5 30.5t-35 21.5t-53 8q-34 0 -69.5 -6t-64 -17.5t-47 -28t-18.5 -37.5q0 -5 2.5 -8.5t10.5 -8t23.5 -9.5t41.5 -12q49 -14 77 -26.5t42 -28t18 -36t4 -49.5q0 -32 -23 -58t-61 -46.5t-86.5 -36 t-99 -25.5t-100 -15t-88.5 -5q-115 0 -173.5 47t-58.5 138q0 34 7.5 68.5t19.5 66t25.5 58.5t25.5 47l60 -28l-21.5 -40.5t-21 -48.5t-16 -56.5t-6.5 -66.5q0 -45 39 -68.5t120 -23.5q33 0 74.5 2.5t84 8t83.5 13t72.5 18t51 23t19.5 28.5q0 7 -3 12.5t-12 11t-26.5 11.5 t-45.5 14q-44 12 -70 24t-40 27t-18 33.5t-4 44.5q0 41 25 75t64.5 58t87.5 37t95 13q57 0 90.5 -17.5t54 -44t33 -57t27.5 -57t38 -44t64 -17.5l79 100.5t90.5 97t97.5 73t100 28.5q36 0 65 -18.5t49.5 -45.5t31.5 -57t11 -54q0 -41 -21 -80t-63.5 -70t-108 -50t-153.5 -19 h-164zM1215 141q70 0 121.5 11t85 28.5t49.5 40t16 45.5q0 10 -5.5 24.5t-16.5 27t-26.5 21.5t-34.5 9q-33 0 -68.5 -18.5t-70 -47.5t-67.5 -66.5t-61 -74.5h78z" />
<glyph unicode="&#xfebf;&#xfbfd;" horiz-adv-x="1620" arabic-form="isolated" d="M1051 47q-45 0 -77 12.5t-55 32.5t-38 46t-26 53q-6 17 -14.5 34t-22.5 30.5t-35 21.5t-53 8q-34 0 -69.5 -6t-64 -17.5t-47 -28t-18.5 -37.5q0 -5 2.5 -8.5t10.5 -8t23.5 -9.5t41.5 -12q49 -14 77 -26.5t42 -28t18 -36t4 -49.5q0 -32 -23 -58t-61 -46.5t-86.5 -36 t-99 -25.5t-100 -15t-88.5 -5q-115 0 -173.5 47t-58.5 138q0 34 7.5 68.5t19.5 66t25.5 58.5t25.5 47l60 -28l-21.5 -40.5t-21 -48.5t-16 -56.5t-6.5 -66.5q0 -45 39 -68.5t120 -23.5q33 0 74.5 2.5t84 8t83.5 13t72.5 18t51 23t19.5 28.5q0 7 -3 12.5t-12 11t-26.5 11.5 t-45.5 14q-44 12 -70 24t-40 27t-18 33.5t-4 44.5q0 41 25 75t64.5 58t87.5 37t95 13q57 0 90.5 -17.5t54 -44t33 -57t27.5 -57t38 -44t64 -17.5l79 100.5t90.5 97t97.5 73t100 28.5q36 0 65 -18.5t49.5 -45.5t31.5 -57t11 -54q0 -41 -21 -80t-63.5 -70t-108 -50t-153.5 -19 h-164zM1215 141q70 0 121.5 11t85 28.5t49.5 40t16 45.5q0 10 -5.5 24.5t-16.5 27t-26.5 21.5t-34.5 9q-33 0 -68.5 -18.5t-70 -47.5t-67.5 -66.5t-61 -74.5h78zM1318 563h-98v98h98v-98z" />
<glyph unicode="&#xfeb4;&#xfbfd;" horiz-adv-x="1583" arabic-form="final" d="M1583 47h-54q-34 0 -69.5 15.5t-57.5 49.5q-20 -29 -50.5 -47t-68.5 -18q-36 0 -70 15t-58 47q-20 -27 -50 -44.5t-69 -17.5q-45 0 -74.5 12.5t-49.5 32.5t-33 46t-24 53q-6 17 -14.5 34t-22.5 30.5t-35 21.5t-53 8q-34 0 -69.5 -6t-64 -17.5t-47 -28t-18.5 -37.5 q0 -5 2.5 -8.5t10.5 -8t23.5 -9.5t41.5 -12q49 -14 77 -26.5t42 -28t18 -36t4 -49.5q0 -32 -23 -58t-61 -46.5t-86.5 -36t-99 -25.5t-100 -15t-88.5 -5q-115 0 -173.5 47t-58.5 138q0 34 7.5 68.5t19.5 66t25.5 58.5t25.5 47l60 -28l-21.5 -40.5t-21 -48.5t-16 -56.5 t-6.5 -66.5q0 -45 39 -68.5t120 -23.5q33 0 74.5 2.5t84 8t83.5 13t72.5 18t51 23t19.5 28.5q0 7 -3 12.5t-12 11t-26.5 11.5t-45.5 14q-44 12 -70 24t-40 27t-18 33.5t-4 44.5q0 41 25 75t64.5 58t87.5 37t95 13q49 0 81.5 -13.5t54 -35t34.5 -49t24 -55.5 q6 -17 13.5 -32.5t20 -27t31 -18.5t47.5 -7q22 0 38.5 9t28 21.5t17 26t5.5 23.5v71h74v-76q0 -21 7.5 -35.5t19.5 -23t27 -12.5t30 -4q21 0 37.5 9.5t28 22.5t17.5 27t6 23v69h73v-73q0 -21 8 -36t20 -24.5t27 -13.5t29 -4h54v-94z" />
<glyph unicode="&#xfeb8;&#xfbfd;" horiz-adv-x="1583" arabic-form="final" d="M1583 47h-54q-34 0 -69.5 15.5t-57.5 49.5q-20 -29 -50.5 -47t-68.5 -18q-36 0 -70 15t-58 47q-20 -27 -50 -44.5t-69 -17.5q-45 0 -74.5 12.5t-49.5 32.5t-33 46t-24 53q-6 17 -14.5 34t-22.5 30.5t-35 21.5t-53 8q-34 0 -69.5 -6t-64 -17.5t-47 -28t-18.5 -37.5 q0 -5 2.5 -8.5t10.5 -8t23.5 -9.5t41.5 -12q49 -14 77 -26.5t42 -28t18 -36t4 -49.5q0 -32 -23 -58t-61 -46.5t-86.5 -36t-99 -25.5t-100 -15t-88.5 -5q-115 0 -173.5 47t-58.5 138q0 34 7.5 68.5t19.5 66t25.5 58.5t25.5 47l60 -28l-21.5 -40.5t-21 -48.5t-16 -56.5 t-6.5 -66.5q0 -45 39 -68.5t120 -23.5q33 0 74.5 2.5t84 8t83.5 13t72.5 18t51 23t19.5 28.5q0 7 -3 12.5t-12 11t-26.5 11.5t-45.5 14q-44 12 -70 24t-40 27t-18 33.5t-4 44.5q0 41 25 75t64.5 58t87.5 37t95 13q49 0 81.5 -13.5t54 -35t34.5 -49t24 -55.5 q6 -17 13.5 -32.5t20 -27t31 -18.5t47.5 -7q22 0 38.5 9t28 21.5t17 26t5.5 23.5v71h74v-76q0 -21 7.5 -35.5t19.5 -23t27 -12.5t30 -4q21 0 37.5 9.5t28 22.5t17.5 27t6 23v69h73v-73q0 -21 8 -36t20 -24.5t27 -13.5t29 -4h54v-94zM1074 470h-98v98h98v-98zM1226 470h-98 v98h98v-98zM1149 618h-97v98h97v-98z" />
<glyph unicode="&#xfebc;&#xfbfd;" horiz-adv-x="1646" arabic-form="final" d="M1200 138q70 0 121.5 11t85 28.5t49.5 40t16 45.5q0 10 -6 24.5t-16.5 27t-26 21.5t-34.5 9q-33 0 -68.5 -18t-70 -47.5t-67.5 -66.5t-61 -75h78zM1646 47q-44 0 -76 1t-59 4t-52 10t-56 19q-39 -17 -89.5 -27t-113.5 -10h-164q-45 0 -74.5 13t-49.5 33.5t-33 47 t-24 53.5q-6 17 -14.5 34t-22.5 30.5t-35 21.5t-53 8q-34 0 -69.5 -6t-64 -17.5t-47 -28t-18.5 -37.5q0 -5 2.5 -8.5t10.5 -8t23.5 -9.5t41.5 -12q49 -14 77 -26.5t42 -28t18 -36t4 -49.5q0 -32 -23 -58t-61 -46.5t-86.5 -36t-99 -25.5t-100 -15t-88.5 -5q-115 0 -173.5 47 t-58.5 138q0 34 7.5 68.5t19.5 66t25.5 58.5t25.5 47l60 -28l-21.5 -40.5t-21 -48.5t-16 -56.5t-6.5 -66.5q0 -45 39 -68.5t120 -23.5q33 0 74.5 2.5t84 8t83.5 13t72.5 18t51 23t19.5 28.5q0 7 -3 12.5t-12 11t-26.5 11.5t-45.5 14q-44 12 -70 24t-40 27t-18 33.5t-4 44.5 q0 41 25 75t64.5 58t87.5 37t95 13q49 0 81.5 -13t53.5 -35t34.5 -49.5t24.5 -55.5q6 -16 13 -30.5t17.5 -26.5t27 -20t40.5 -10l79 100.5t90 97t97.5 73t100.5 28.5q36 0 65 -18.5t49.5 -45.5t31 -57t10.5 -54q0 -30 -11.5 -59.5t-34.5 -56.5q22 -4 58.5 -5t88.5 -1v-94z " />
<glyph unicode="&#xfec0;&#xfbfd;" horiz-adv-x="1646" arabic-form="final" d="M1200 138q70 0 121.5 11t85 28.5t49.5 40t16 45.5q0 10 -6 24.5t-16.5 27t-26 21.5t-34.5 9q-33 0 -68.5 -18t-70 -47.5t-67.5 -66.5t-61 -75h78zM1646 47q-44 0 -76 1t-59 4t-52 10t-56 19q-39 -17 -89.5 -27t-113.5 -10h-164q-45 0 -74.5 13t-49.5 33.5t-33 47 t-24 53.5q-6 17 -14.5 34t-22.5 30.5t-35 21.5t-53 8q-34 0 -69.5 -6t-64 -17.5t-47 -28t-18.5 -37.5q0 -5 2.5 -8.5t10.5 -8t23.5 -9.5t41.5 -12q49 -14 77 -26.5t42 -28t18 -36t4 -49.5q0 -32 -23 -58t-61 -46.5t-86.5 -36t-99 -25.5t-100 -15t-88.5 -5q-115 0 -173.5 47 t-58.5 138q0 34 7.5 68.5t19.5 66t25.5 58.5t25.5 47l60 -28l-21.5 -40.5t-21 -48.5t-16 -56.5t-6.5 -66.5q0 -45 39 -68.5t120 -23.5q33 0 74.5 2.5t84 8t83.5 13t72.5 18t51 23t19.5 28.5q0 7 -3 12.5t-12 11t-26.5 11.5t-45.5 14q-44 12 -70 24t-40 27t-18 33.5t-4 44.5 q0 41 25 75t64.5 58t87.5 37t95 13q49 0 81.5 -13t53.5 -35t34.5 -49.5t24.5 -55.5q6 -16 13 -30.5t17.5 -26.5t27 -20t40.5 -10l79 100.5t90 97t97.5 73t100.5 28.5q36 0 65 -18.5t49.5 -45.5t31 -57t10.5 -54q0 -30 -11.5 -59.5t-34.5 -56.5q22 -4 58.5 -5t88.5 -1v-94z M1318 563h-98v98h98v-98z" />
<glyph unicode="&#xfedf;&#xfe8e;" horiz-adv-x="629" arabic-form="isolated" d="M467 760h75v-514q0 -53 -24.5 -91t-64.5 -66.5t-90.5 -49t-101.5 -36.5l-75 -24l-22 91l57.5 17t30.5 11q-3 61 -11 134.5t-27 149.5t-52 148.5t-87 132.5l55 63q57 -63 93 -140t57 -158t31 -160t15 -145q61 24 101 53t40 70v514z" />
<glyph unicode="&#xfee0;&#xfe8e;" horiz-adv-x="674" arabic-form="final" d="M450 760h75v-514q0 -63 35.5 -84t113.5 -21v-94q-76 0 -124.5 15t-72.5 57q-40 -46 -103.5 -75.5t-135.5 -41.5l-108 -19l-12 93l67 11.5t67 12.5q-3 63 -11 135.5t-26.5 147t-52 146.5t-87.5 134l55 63q56 -65 92 -142t57.5 -157t31.5 -159t15 -146q54 20 89 51t35 73 v514z" />
<glyph unicode="&#xfee4;&#xfbfd;" horiz-adv-x="1347" d="M931 186q30 -48 59 -67t53 -19q20 0 31.5 19t11.5 48q0 45 -16 68.5t-29 23.5q-24 0 -51.5 -21t-58.5 -52zM1347 47q-21 0 -43.5 1.5t-46.5 9t-49.5 23.5t-51.5 45q-10 -54 -38.5 -87t-74.5 -33q-37 0 -80 27.5t-88 93.5q-17 -17 -35 -27t-43 -10q-29 0 -58 7t-58 7 q-18 0 -33 -5t-19 -17q57 -33 86.5 -64.5t29.5 -67.5q0 -24 -21 -43.5t-55.5 -35t-79.5 -27t-93 -19t-96 -11.5t-89 -4q-55 0 -101 11.5t-79.5 35t-52 59t-18.5 84.5q0 34 7.5 68.5t19.5 65.5t25.5 58t25.5 47l60 -28l-21.5 -40t-21 -48.5t-16 -57.5t-6.5 -65q0 -25 14 -43 t38 -30t56.5 -18t69.5 -6q34 0 74 1.5t80 4t77.5 6t66 9t45.5 12t17 14.5q0 7 -36 28t-103 55l27 73q16 51 50 71.5t72 20.5q29 0 57.5 -7t58.5 -7q14 0 25 9.5t25 23.5l48.5 50.5t49 43.5t48.5 30.5t48 11.5q17 0 38.5 -15t41.5 -40l77 -96q16 -21 35 -33t39 -18.5t39 -8 t36 -1.5v-94z" />
<glyph unicode="&#xfbfd;&#xfbfd;" horiz-adv-x="1056" d="M1056 47q-55 0 -87.5 17.5t-53.5 44t-34.5 57.5t-31.5 57.5t-45 44t-74 17.5q-34 0 -69.5 -6t-64 -17.5t-47 -28t-18.5 -37.5q0 -5 2.5 -8.5t10.5 -8t23.5 -9.5t41.5 -12q49 -14 77 -26.5t42 -28t18 -36t4 -49.5q0 -32 -23 -58t-61 -46.5t-86.5 -36t-99 -25.5t-100 -15 t-88.5 -5q-115 0 -173.5 47t-58.5 138q0 34 7.5 68.5t19.5 66t25.5 58.5t25.5 47l60 -28l-21.5 -40.5t-21 -48.5t-16 -56.5t-6.5 -66.5q0 -45 39 -68.5t120 -23.5q33 0 74.5 2.5t84 8t83.5 13t72.5 18t51 23t19.5 28.5q0 7 -3 12.5t-12 11t-26.5 11.5t-45.5 14 q-44 12 -70 24t-40 27t-18 33.5t-4 44.5q0 41 25 75t64.5 58t87.5 37t95 13q49 0 82 -12.5t55.5 -33.5t37.5 -48t28 -55q8 -17 17 -33t22.5 -28.5t33.5 -20t50 -7.5v-94z" />
<glyph unicode="&#xfb59;&#xfbfd;" horiz-adv-x="1095" d="M1095 47q-40 0 -70.5 12t-54 31.5t-41.5 43.5t-33 48q-11 18 -24.5 36.5t-32.5 33.5t-45.5 24t-63.5 9q-34 0 -69.5 -6t-64 -17.5t-47 -28t-18.5 -37.5q0 -5 2.5 -8.5t10.5 -8t23.5 -9.5t41.5 -12q49 -14 77 -26.5t42 -28t18 -36t4 -49.5q0 -32 -23 -58t-61 -46.5 t-86.5 -36t-99 -25.5t-100 -15t-88.5 -5q-115 0 -173.5 47t-58.5 138q0 34 7.5 68.5t19.5 66t25.5 58.5t25.5 47l60 -28l-21.5 -40.5t-21 -48.5t-16 -56.5t-6.5 -66.5q0 -45 39 -68.5t120 -23.5q33 0 74.5 2t84 5t83.5 10.5t72.5 19t51 26t19.5 30.5q0 7 -3 12.5t-12 11 t-26.5 11.5t-45.5 14q-44 12 -70 24t-40 27t-18 33.5t-4 44.5q0 41 25 75t64.5 58t87.5 37t95 13q51 0 87 -12.5t62.5 -33.5t45 -47.5t34.5 -54.5l22.5 -33.5t26.5 -29t36 -20t51 -7.5v-94zM857 -159h-98v97h98v-97zM1009 -159h-98v97h98v-97zM932 -307h-97v98h97v-98z" />
<glyph unicode="&#xfb58;&#xfbfd;" horiz-adv-x="1153" d="M929 -159h-98v97h98v-97zM1081 -159h-98v97h98v-97zM1004 -307h-97v98h97v-98zM1016 435q38 -76 56 -128t18 -79q0 -34 -12.5 -64t-34.5 -52.5t-51.5 -35.5t-63.5 -13q-14 0 -49 6.5l-74 14l-74 14t-50 6.5q-18 0 -33 -5t-19 -17q57 -33 86.5 -64.5t29.5 -67.5 q0 -24 -21 -43.5t-55.5 -35t-79.5 -27t-93 -19t-96 -9t-89 -1.5q-55 0 -101 9t-79.5 32.5t-52 59t-18.5 84.5q0 34 7.5 68.5t19.5 65.5t25.5 58t25.5 47l60 -28l-21.5 -40t-21 -48.5t-16 -57.5t-6.5 -65q0 -25 14 -43t38 -30t56.5 -18t69.5 -6q34 0 74 1.5l80 3t77.5 4.5 t66 6t45.5 13.5t17 18.5q0 7 -35 30l-94 64l17 62q16 51 50 71.5t72 20.5q16 0 51 -6.5t73 -14.5t72.5 -14.5t50.5 -6.5q37 0 63 21t26 51q0 15 -16 56t-50 108z" />
<glyph unicode="&#xfb94;&#xfbfd;" horiz-adv-x="1315" d="M1271 778q-33 -10 -78.5 -26l-96.5 -35.5t-103.5 -42t-98.5 -46.5l-22 59l103 44.5l105 42.5l96.5 37t78.5 28zM1267 619q-27 -7 -66.5 -20.5t-84.5 -31t-93 -38.5t-91 -42q44 -25 82.5 -50.5t67 -56t45 -67.5t16.5 -85q0 -49 -23.5 -81t-57 -50.5t-70.5 -26t-64 -7.5 q-14 0 -49 6.5l-74 14l-74 14t-50 6.5q-18 0 -33 -5t-19 -17q57 -33 86.5 -64.5t29.5 -67.5q0 -24 -21 -43.5t-55.5 -35t-79.5 -27t-93 -19t-96 -11.5t-89 -4q-55 0 -101 11.5t-79.5 35t-52 59t-18.5 84.5q0 34 7.5 68.5t19.5 65.5t25.5 58t25.5 47l60 -28l-21.5 -40 t-21 -48.5t-16 -57.5t-6.5 -65q0 -25 14 -43t38 -30t56.5 -18t69.5 -6q34 0 74 1.5t80 4t77.5 6t66 9t45.5 12t17 14.5q0 7 -36 28t-103 55l27 73q16 51 50 71.5t72 20.5q16 0 51 -6.5t73 -14.5t72.5 -14.5t50.5 -6.5q18 0 42 3.5t46 12t37 22t15 34.5q0 31 -17.5 57.5 t-48 50.5t-71 47.5l-86.5 48.5l9 116q50 28 105.5 54t109 47.5t100.5 37t80 23.5z" />
<glyph unicode="&#xfb95;&#xfbfd;" horiz-adv-x="1377" d="M1377 47q-55 0 -89 17.5t-57.5 44.5t-42 59.5t-43.5 63.5q0 -51 -24 -83.5t-57.5 -51.5t-71 -26.5t-64.5 -7.5q-14 0 -49 6.5l-74 14l-74 14t-50 6.5q-18 0 -33 -5t-19 -17q57 -33 86.5 -64.5t29.5 -67.5q0 -24 -21 -43.5t-55.5 -35t-79.5 -27t-93 -19t-96 -11.5t-89 -4 q-55 0 -101 11.5t-79.5 35t-52 59t-18.5 84.5q0 34 7.5 68.5t19.5 65.5t25.5 58t25.5 47l60 -28l-21.5 -40t-21 -48.5t-16 -57.5t-6.5 -65q0 -25 14 -43t38 -30t56.5 -18t69.5 -6q34 0 74 1.5t80 4t77.5 6t66 9t45.5 12t17 14.5q0 7 -36 28t-103 55l27 73q16 51 50 71.5 t72 20.5q16 0 51 -6.5t73 -14.5t72.5 -14.5t50.5 -6.5q18 0 42 3.5t46 12t37 22t15 34.5q0 31 -17.5 57.5t-48 50.5t-71 47.5l-86.5 48.5l9 116q50 28 105.5 54t109 47.5t100.5 37t80 23.5l18 -91q-27 -7 -66.5 -20.5t-84.5 -31t-93 -38.5t-91 -42l84 -51.5t88.5 -61.5 t81 -71t60.5 -80q9 -16 20 -31t26.5 -26t36 -18t48.5 -7v-94zM1271 778q-33 -10 -78.5 -26l-96.5 -35.5t-103.5 -42t-98.5 -46.5l-22 59l103 44.5l105 42.5l96.5 37t78.5 28z" />
<glyph unicode="&#x67e;" horiz-adv-x="1078" arabic-form="isolated" d="M151 262q0 -27 19 -47.5t53 -35t80.5 -22.5t101.5 -10q70 -2 140.5 3.5t134 14.5t117 20t89.5 20q28 8 40.5 14.5t12.5 14.5q0 32 -11 80t-33 118l78 7q12 -39 20 -68t13.5 -52.5t7.5 -43.5t2 -41q0 -56 -27.5 -83t-81.5 -41l-83.5 -22t-105.5 -21.5t-136.5 -15.5 t-176.5 -4q-71 1 -133 11t-107.5 31.5t-72 56t-26.5 86.5q0 21 4 46.5t10.5 52t14.5 52.5t16 49l75 -17q-14 -42 -24.5 -81.5t-10.5 -71.5zM493 -159h-98v97h98v-97zM645 -159h-98v97h98v-97zM568 -307h-97v98h97v-98z" />
<glyph unicode="&#x67e;" horiz-adv-x="1142" arabic-form="final" d="M73 226q-2 21 0.5 46t7.5 52t11.5 54l12.5 50l76 -13q-12 -43 -21.5 -89t-7.5 -78q1 -27 20.5 -46t52.5 -31t79 -17.5t101 -5.5q70 0 139 4.5t130.5 13.5t111.5 21t83 27q17 8 30 24t23 36t17.5 41.5l13.5 39.5l8 27l67 -27l-16 -56t-9 -34t-3.5 -19.5t-0.5 -12.5 q0 -14 6.5 -29.5t22.5 -29t44 -22.5t70 -9v-94q-45 0 -79.5 10t-59 25.5t-40.5 35t-25 38.5q-21 -27 -58 -46.5t-98.5 -32t-153.5 -19t-223 -6.5q-71 0 -130.5 7.5t-103 27t-69.5 52.5t-29 85zM485 -159h-98v97h98v-97zM637 -159h-98v97h98v-97zM560 -307h-97v98h97v-98z " />
<glyph unicode="&#x67e;" horiz-adv-x="344" arabic-form="initial" d="M180 208q0 32 -11.5 80t-33.5 118l78 7q13 -38 21.5 -67t13.5 -53t7 -44t2 -41q0 -32 -16 -61.5t-44.5 -51.5t-68.5 -35t-88 -13h-40q-18 0 -34 6v88h74q64 0 102 20t38 47zM98 -159h-98v97h98v-97zM250 -159h-98v97h98v-97zM173 -307h-97v98h97v-98z" />
<glyph unicode="&#x67e;" horiz-adv-x="344" arabic-form="medial" d="M344 47q-72 0 -112.5 13.5t-62.5 39.5q-47 -53 -151 -53h-18q-18 0 -34 6v88h52q61 0 90 22t29 58v108h75v-108q0 -19 5 -34t19 -25t40 -15.5t68 -5.5v-94zM98 -159h-98v97h98v-97zM250 -159h-98v97h98v-97zM173 -307h-97v98h97v-98z" />
<glyph unicode="&#x686;" horiz-adv-x="736" arabic-form="isolated" d="M634 -151q-24 -2 -45.5 -7t-49 -10.5t-66.5 -11t-99 -8.5q-57 -3 -112 6.5t-98.5 39t-70 82t-26.5 135.5q0 58 26.5 104.5t69 83t95.5 64t106 47.5l-126 68q-15 8 -23.5 11.5t-17.5 3.5q-4 0 -9.5 -3.5t-9.5 -7.5l-66 -72l-45 43l57 92q8 15 28.5 28t40.5 13 q18 0 34.5 -5.5t45.5 -19.5l161 -87q14 -7 34 -11t41 -6.5t41.5 -3t35.5 -0.5h71v-94h-63q-30 0 -74.5 -6t-94.5 -18.5t-99.5 -32t-89.5 -47t-65 -63.5t-25 -81q0 -55 19.5 -91t51 -56t70.5 -27t79 -4q100 7 161 17t94 18zM390 109h-88v88h88v-88zM526 109h-88v88h88v-88z M458 -25h-88v88h88v-88z" />
<glyph unicode="&#x686;" horiz-adv-x="736" arabic-form="final" d="M637 -155l-46.5 -14t-62 -15t-76 -12t-88.5 -5q-54 0 -107 12t-95.5 43t-68.5 84.5t-26 136.5q0 58 26.5 104.5t69 83t95.5 64t106 47.5l-126 68q-15 8 -23.5 11.5t-17.5 3.5q-4 0 -9.5 -3.5t-9.5 -7.5l-66 -72l-45 43l57 92q8 15 28.5 28t40.5 13q18 0 34.5 -5.5 t45.5 -19.5l161 -87q14 -7 34 -11t41 -6.5t41.5 -3t35.5 -0.5h71v-94h-75l33 -95q7 -20 16 -36t23 -27.5t33.5 -17.5t48.5 -6v-94q-45 0 -76.5 11.5t-53.5 32.5t-36.5 50t-24.5 64l-30 111q-36 -4 -77.5 -13t-82.5 -23.5t-79 -34.5t-66.5 -45.5t-46 -56.5t-17.5 -68 q0 -55 19 -91.5t50 -58t70 -30t79 -8.5q91 0 156.5 13t97.5 23zM352 94h-88v88h88v-88zM488 94h-88v88h88v-88zM420 -40h-88v88h88v-88z" />
<glyph unicode="&#x686;" horiz-adv-x="736" arabic-form="initial" d="M667 219h-62q-37 0 -63 -14t-49 -32q-18 -14 -49.5 -35.5t-70.5 -41.5t-81.5 -34.5t-82.5 -14.5h-209q-18 0 -34 6v88h243q31 0 65 11t66 27t59 33.5t43 30.5q-6 2 -13.5 5.5t-12.5 6.5l-169 99q-15 9 -24 12t-17 3q-6 0 -14 -4t-13 -9l-64 -70l-47 46l60 89 q14 20 36.5 30.5t41.5 10.5q32 0 78 -25l168 -99q14 -8 30 -13t37 -7.5t48 -3.5t65 -1h35v-94zM208 -159h-98v97h98v-97zM360 -159h-98v97h98v-97zM283 -307h-97v98h97v-98z" />
<glyph unicode="&#x686;" horiz-adv-x="751" arabic-form="medial" d="M751 47q-58 0 -96.5 5t-64 18.5t-41.5 37t-29 61.5l-8 21q-21 -17 -55 -41.5t-74.5 -47t-85.5 -38.5t-90 -16h-207q-18 0 -34 6v88h241q30 0 64 11t66 27t59 33.5t43 30.5q-6 2 -13.5 5.5t-12.5 6.5l-169 99q-15 9 -24 12t-17 3q-6 0 -14 -4t-13 -9l-64 -70l-47 46l60 89 q14 20 36.5 30.5t41.5 10.5q32 0 78 -25l168 -99q14 -8 30 -13t37 -7.5t48 -3.5t65 -1h35v-94h-61q-8 0 -14.5 -0.5t-13.5 -1.5l7 -14q9 -17 20.5 -29t30 -19.5t47 -10.5t71.5 -3v-94zM217 -159h-98v97h98v-97zM369 -159h-98v97h98v-97zM292 -307h-97v98h97v-98z" />
<glyph unicode="&#x698;" horiz-adv-x="526" arabic-form="isolated" d="M40 -135q65 22 126.5 51t109 62.5t76.5 70.5t29 75q0 22 -5 48.5t-12.5 52t-17.5 47.5t-20 35l59 58q13 -17 26 -45t23.5 -61.5t17.5 -68.5t7 -66q0 -56 -33 -107.5t-88 -96.5t-126.5 -82t-147.5 -62zM256 527h-98v98h98v-98zM408 527h-98v98h98v-98zM331 675h-97v98h97 v-98z" />
<glyph unicode="&#x698;" horiz-adv-x="613" arabic-form="final" d="M613 47q-57 0 -93 9.5t-60 27.5q-11 -55 -50.5 -100t-94.5 -82t-118.5 -67t-122.5 -55l-32 84l120 56.5t112.5 61t83 71t32.5 87.5t-8.5 95.5t-22.5 80.5l73 28l31 -109q6 -21 14 -38t23.5 -29.5t42 -19.5t70.5 -7v-94zM256 527h-98v98h98v-98zM408 527h-98v98h98v-98z M331 675h-97v98h97v-98z" />
<glyph unicode="&#x6a9;" horiz-adv-x="1078" arabic-form="isolated" d="M143 225q0 -54 80.5 -71.5t239.5 -17.5q91 0 160.5 1.5t117 10t71.5 27t24 53.5q0 33 -17 61t-47 54t-70.5 51l-86.5 51l11 125l104 67l105.5 63t102 54t93.5 40l25 -89q-41 -15 -87 -37t-93.5 -48.5l-95 -55.5l-92.5 -59q45 -26 86 -54.5t71.5 -62.5t49 -73.5 t18.5 -86.5q0 -38 -6 -65t-16.5 -45t-25 -28t-30.5 -14q-37 -10 -67.5 -16t-69.5 -9.5t-93 -5t-139 -1.5q-79 0 -151.5 2t-127.5 18t-88 50.5t-33 100.5q0 21 4 48t10.5 55.5t14.5 56t16 50.5l75 -17q-7 -21 -14.5 -46.5t-14 -50.5t-10.5 -47.5t-4 -38.5z" />
<glyph unicode="&#x6a9;" horiz-adv-x="1142" arabic-form="final" d="M145 250q0 -27 19 -44t58.5 -26t99.5 -12.5t143 -3.5q73 0 140.5 -1.5t119 4t82 21t30.5 49.5q0 31 -17.5 62t-48 60t-71 57t-86.5 53l10 116l104.5 60.5l109 61.5t100.5 51t80 30l18 -91q-27 -7 -66.5 -27t-84.5 -45.5l-93 -52.5t-91 -48q39 -23 84 -55.5t88.5 -71 t81 -81t60.5 -84.5q9 -16 19 -31t24.5 -26t34.5 -17.5t49 -6.5v-94q-41 0 -71 10.5t-52.5 29.5t-39.5 43.5t-31 50.5q-7 13 -16 25.5t-20 23.5q0 -58 -8 -92t-37 -48q-42 -20 -72.5 -29.5t-68 -12.5t-92 -2t-144.5 1q-113 0 -193.5 6.5t-131.5 24.5t-75 50.5t-24 84.5 q0 21 4 50.5t10.5 61t14.5 62t16 53.5l77 -17q-7 -21 -14.5 -46.5t-14 -50.5t-10.5 -47.5t-4 -38.5z" />
<glyph unicode="&#x6a9;" horiz-adv-x="498" arabic-form="initial" d="M0 47q-18 0 -34 6v88h68q40 0 79.5 5t70.5 15.5t50.5 27t19.5 39.5q0 33 -17.5 61.5t-47.5 54.5t-70.5 50.5l-86.5 50.5l12 125l103 67.5t105.5 62.5t102.5 53.5t94 40.5l24 -89q-41 -15 -87 -37t-93.5 -48t-95 -55.5l-91.5 -59.5q45 -26 85.5 -55t71.5 -62.5t49.5 -73 t18.5 -86.5t-26 -81t-68.5 -56.5t-95.5 -33t-107 -10.5h-34z" />
<glyph unicode="&#x6a9;" horiz-adv-x="562" arabic-form="medial" d="M562 47q-54 0 -89 18t-60 46t-43.5 60t-39.5 61q0 -48 -26 -83t-68 -57.5t-95 -33.5t-107 -11h-34q-18 0 -34 6v88h68q40 0 79.5 5t70.5 15.5t50.5 27t19.5 39.5q0 33 -17.5 61.5t-47.5 54.5t-70.5 50.5l-86.5 50.5l12 125l103 67.5t105.5 62.5t102.5 53.5t94 40.5 l24 -89q-41 -15 -87 -37t-93.5 -48.5l-95 -55.5l-92.5 -59q39 -23 86 -54t93 -67.5t85.5 -77.5t62.5 -83q9 -16 19.5 -30.5t26 -26t36 -18.5t48.5 -7v-94z" />
<glyph unicode="&#x6af;" horiz-adv-x="1078" arabic-form="isolated" d="M1040 788.85q-32 -11.9902 -77.5 -30.5752t-96.5 -41.9668q-51 -23.3809 -104 -50.959q-53 -27.5771 -99 -56.3545l-22 70.7432l103.5 53.3574l104.5 50.959l96.5 44.3643t78.5 33.5732zM143 202.615q0 -48.6279 80.5 -64.3867t239.5 -15.7588q91 0 160.5 1.35059 t117 9.00488q47.5 7.65527 71.5 24.3145t24 48.1768q0 29.7178 -17 54.9316q-17 25.2148 -47 48.6279t-70.5 45.9258l-86.5 45.9268l11 112.563l104 60.335l105.5 56.7324q52.5 27.0146 102 48.627t93.5 36.0205l25 -80.1455q-41 -13.5078 -87 -33.3184 q-46 -19.8115 -93.5 -43.6758l-95 -49.9785l-92.5 -53.1299q45 -23.4131 86 -49.0781q41 -25.6641 71.5 -56.2822q30.5 -30.6172 49 -66.1875t18.5 -77.8945q0 -34.2188 -6 -58.5332q-6 -24.3135 -16.5 -40.5225q-10.5 -16.21 -25 -25.2148t-30.5 -12.6064 q-37 -9.00586 -67.5 -14.4082q-30.5 -5.40332 -69.5 -8.55566q-39 -3.15137 -93 -4.50195t-139 -1.35059q-79 0 -151.5 1.80078t-127.5 16.209t-88 45.4756q-33 31.0684 -33 90.502q0 18.9111 4 43.2246t10.5 49.9785q6.5 25.6641 14.5 50.4287q8 24.7637 16 45.4756 l75 -15.3086q-7 -18.9111 -14.5 -41.874t-14 -45.4756t-10.5 -42.7744t-4 -34.6699z" />
<glyph unicode="&#x6af;" horiz-adv-x="1142" arabic-form="final" d="M145 225.067q0 -24.3076 19 -39.6123t58.5 -23.4062q39.5 -8.10254 99.5 -11.2539q60 -3.15039 143 -3.15039q73 0 140.5 -1.35059t119 3.60059t82 18.9062q30.5 13.9541 30.5 44.5625q0 27.9082 -17.5 55.8174q-17.5 27.9082 -48 54.0156q-30.5 26.1084 -71 51.3154 t-86.5 47.7139l10 104.432l104.5 54.4658l109 55.3672q53.5 26.1074 100.5 45.9131t80 27.0088l18 -81.9248q-27 -6.30176 -66.5 -24.3076q-39.5 -18.0049 -84.5 -40.9619l-93 -47.2646q-48 -24.3066 -91 -43.2129q39 -20.7061 84 -49.9648q45 -29.2578 88.5 -63.9189 q43.5 -34.6602 81 -72.9219q37.5 -38.2607 60.5 -76.0723q9 -14.4043 19 -27.9082t24.5 -23.4072q14.5 -9.90234 34.5 -15.7549q20 -5.85156 49 -5.85156v-84.625q-41 0 -71 9.45312q-30 9.45215 -52.5 26.5576t-39.5 39.1611q-17 22.0566 -31 45.4639 q-7 11.7031 -16 22.957q-9 11.2529 -20 21.1562q0 -52.2158 -8 -82.8242q-8 -30.6094 -37 -43.2129q-42 -18.0059 -72.5 -26.5586t-68 -11.2529q-37.5 -2.70117 -92 -1.80078t-144.5 0.900391q-113 0 -193.5 5.85156t-131.5 22.0566t-75 45.4639t-24 76.0723 q0 18.9062 4 45.4639t10.5 54.916t14.5 55.8164q8 27.459 16 48.165l77 -15.3047q-7 -18.9062 -14.5 -41.8623q-7.5 -22.957 -14 -45.4639t-10.5 -42.7627t-4 -34.6602zM1040 786.85q-32 -11.9902 -77.5 -30.5752t-96.5 -41.9668q-51 -23.3809 -104 -50.959 q-53 -27.5771 -99 -56.3545l-22 70.7432l103.5 53.3574l104.5 50.959l96.5 44.3643t78.5 33.5732z" />
<glyph unicode="&#x6af;" horiz-adv-x="498" arabic-form="initial" d="M0 42.3438q-18 0 -34 5.40625v79.2822h68q40 0 79.5 4.50488t70.5 13.9648t50.5 24.3252t19.5 35.5869q0 29.7314 -17.5 55.4082t-47.5 49.1016q-30 23.4238 -70.5 45.4971l-86.5 45.4971l12 112.618l103 60.8135q53 30.1807 105.5 56.3086q52.5 26.127 102.5 48.2002 t94 36.4883l24 -80.1836q-41 -13.5146 -87 -33.335q-46 -19.8213 -93.5 -43.2451q-47.5 -23.4248 -95 -50.002l-91.5 -53.6064q45 -23.4248 85.5 -49.5518t71.5 -56.3086t49.5 -65.7686t18.5 -77.9316q0 -42.3438 -26 -72.9756t-68.5 -50.9033t-95.5 -29.7314t-107 -9.45996 h-34zM443 788.85q-32 -11.9902 -77.5 -30.5752t-96.5 -41.9668q-51 -23.3809 -104 -50.959q-53 -27.5771 -99 -56.3545l-22 70.7432l103.5 53.3574l104.5 50.959l96.5 44.3643t78.5 33.5732z" />
<glyph unicode="&#x6af;" horiz-adv-x="562" arabic-form="medial" d="M562 42.3008q-54 0 -89 16.2012q-35 16.2002 -60 41.4004q-25 25.2012 -43.5 54.002t-39.5 54.9014q0 -43.2012 -26 -74.7021t-68 -51.751q-42 -20.251 -95 -30.1514t-107 -9.90039h-34q-18 0 -34 5.40039v79.2021h68q40 0 79.5 4.5t70.5 13.9502 q31 9.45117 50.5 24.3008q19.5 14.8506 19.5 35.5508q0 29.7012 -17.5 55.3516q-17.5 25.6514 -47.5 49.0518t-70.5 45.4512l-86.5 45.4512l12 112.503l103 60.752t105.5 56.252q52.5 26.1006 102.5 48.1504q50 22.0508 94 36.4512l24 -80.1016q-41 -13.501 -87 -33.3008 q-46 -19.8008 -93.5 -43.6514l-95 -49.9521l-92.5 -53.1006q39 -20.7012 86 -48.6016q47 -27.9014 93 -60.752t85.5 -69.752q39.5 -36.9004 62.5 -74.7021q9 -14.4004 19.5 -27.4502q10.5 -13.0508 26 -23.4004q15.5 -10.3506 36 -16.6514q20.5 -6.2998 48.5 -6.2998 v-84.6025zM443 784.85q-32 -11.9902 -77.5 -30.5752t-96.5 -41.9668q-51 -23.3809 -104 -50.959q-53 -27.5771 -99 -56.3545l-22 70.7432l103.5 53.3574l104.5 50.959l96.5 44.3643t78.5 33.5732z" />
<glyph unicode="&#x6c0;" horiz-adv-x="535" arabic-form="isolated" d="M213 485q40 -14 87.5 -41t88 -63t68 -79.5t27.5 -90.5q0 -35 -24 -67t-60.5 -56t-80 -38.5t-83.5 -14.5q-38 0 -70.5 12t-56 33.5t-37 50.5t-13.5 63q0 37 17 81.5t41.5 86.5t51 75.5t44.5 47.5zM228 380q-16 -18 -33 -42t-30.5 -49t-22 -49.5t-8.5 -45.5 q0 -28 28.5 -46.5t73.5 -18.5q27 0 57.5 6.5t56 18t42.5 26t17 31.5q0 24 -17 48.5t-43 46.5t-58 41t-63 33zM339 618q-26 -5 -48.5 -10t-48.5 -13.5t-59.5 -22.5t-82.5 -37l-22 57q21 11 38 19l32 15q-18 15 -30 34t-12 42q0 22 11 43.5t28 38t36 27t36 10.5 q39 0 59.5 -15.5t40.5 -38.5l-37 -41q-12 14 -24.5 22.5t-38.5 8.5q-9 0 -19.5 -4.5t-20 -12t-15.5 -17.5t-6 -21q0 -12 18.5 -24t45.5 -23q31 10 57.5 15t52.5 11z" />
<glyph unicode="&#x6c0;" horiz-adv-x="570" arabic-form="final" d="M570 47q-29 0 -57 2.5t-53.5 14t-47 35t-36.5 66.5l-14 -62q-47 1 -98.5 5.5t-94.5 18.5t-70.5 40t-27.5 71q0 42 17.5 79.5t48 69t72.5 56.5t91 43l-16 71l73 21l81 -355q7 -32 20 -48.5t31 -24t38.5 -8.5t42.5 -1v-94zM321 395q-38 -13 -70 -30t-55.5 -37t-36.5 -43 t-13 -47q0 -12 19.5 -19.5t51 -12t71 -6.5l78.5 -4zM329 660q-26 -5 -48.5 -10t-48.5 -13.5t-59.5 -22.5t-82.5 -37l-22 57q21 11 38 19l32 15q-18 15 -30 34t-12 42q0 22 11 43.5t28 38t36 27t36 10.5q39 0 59.5 -15.5t40.5 -38.5l-37 -41q-12 14 -24.5 22.5t-38.5 8.5 q-9 0 -19.5 -4.5t-20 -12t-15.5 -17.5t-6 -21q0 -12 18.5 -24t45.5 -23q31 10 57.5 15t52.5 11z" />
<glyph unicode="&#x649;" horiz-adv-x="318" arabic-form="initial" d="M180 208q0 32 -11.5 80t-33.5 118l78 7q13 -38 21.5 -67t13.5 -53t7 -44t2 -41q0 -32 -16 -61.5t-44.5 -51.5t-68.5 -35t-88 -13h-40q-18 0 -34 6v88h74q64 0 102 20t38 47z" />
<glyph unicode="&#x649;" horiz-adv-x="344" arabic-form="medial" d="M344 47q-72 0 -112.5 13.5t-62.5 39.5q-47 -53 -151 -53h-18q-18 0 -34 6v88h52q61 0 90 22t29 58v108h75v-108q0 -19 5 -34t19 -25t40 -15.5t68 -5.5v-94z" />
<glyph unicode="&#x6cc;" horiz-adv-x="875" arabic-form="isolated" d="M762 250q-19 30 -37.5 43t-38.5 13q-26 0 -53 -11t-49.5 -27.5t-37 -36t-14.5 -35.5q0 -5 2.5 -9t11 -8t23.5 -9t41 -12q45 -13 73 -26t44 -29t21.5 -36.5t5.5 -48.5q0 -32 -23 -58t-61.5 -46.5t-87.5 -36t-100 -25.5t-101 -15t-89 -5q-115 0 -175.5 47t-60.5 138 q0 34 8.5 68.5t20.5 66t26.5 58.5t26.5 47l61 -28l-21.5 -40.5t-21 -48.5t-16 -56.5t-6.5 -66.5q0 -45 38.5 -68.5t119.5 -23.5q33 0 74 2.5t83.5 8t83.5 13t72.5 18t51 23t19.5 28.5q0 7 -3 12.5t-12 11t-26.5 11.5t-45.5 14q-44 12 -70 24t-40 27t-18.5 34t-4.5 44 q0 31 21.5 67t55.5 67t74.5 51t78.5 20q36 0 71.5 -23.5t67.5 -75.5z" />
<glyph unicode="&#x6cc;" horiz-adv-x="818" arabic-form="final" d="M818 47q-31 0 -55.5 2t-46.5 6t-43 8.5l-45 9.5q46 -31 70 -60.5t24 -61.5q0 -24 -19 -43.5t-51 -35t-73.5 -27t-87.5 -19.5t-92.5 -12t-87.5 -4q-56 0 -102.5 11.5t-80.5 35t-53 59t-19 84.5q0 34 8.5 68.5t21 65.5t26.5 58t26 48l61 -29l-21.5 -40t-21 -48.5t-16 -57.5 t-6.5 -65q0 -25 14 -43t38 -30t56 -18t69 -6q51 0 109.5 3t108.5 9t83.5 15t33.5 21q0 19 -30 44t-96 59l44 101q33 0 63 -2t60.5 -5t62.5 -5t68 -2v-94z" />
<glyph unicode="&#x6cc;" horiz-adv-x="344" arabic-form="initial" d="M180 208q0 32 -11.5 80t-33.5 118l78 7q13 -38 21.5 -67t13.5 -53t7 -44t2 -41q0 -32 -16 -61.5t-44.5 -51.5t-68.5 -35t-88 -13h-40q-18 0 -34 6v88h74q64 0 102 20t38 47zM102 -179h-98v98h98v-98zM246 -179h-98v98h98v-98z" />
<glyph unicode="&#x6cc;" horiz-adv-x="344" arabic-form="medial" d="M344 47q-72 0 -112.5 13.5t-62.5 39.5q-47 -53 -151 -53h-18q-18 0 -34 6v88h52q61 0 90 22t29 58v108h75v-108q0 -19 5 -34t19 -25t40 -15.5t68 -5.5v-94zM102 -179h-98v98h98v-98zM246 -179h-98v98h98v-98z" />
<glyph unicode="&#xfc5e;" horiz-adv-x="318" arabic-form="isolated" d="M302 490q2 -18 -1 -35t-11.5 -30.5t-23 -21.5t-34.5 -8q-9 0 -26.5 11.5t-27.5 43.5q-3 -18 -8.5 -34.5t-14.5 -29.5t-22 -21t-31 -8q-19 0 -32 9.5t-21 24.5t-11.5 33.5t-3.5 37.5l-2 37l27 7l2 -45q0 -24 9 -45t32 -21q16 0 27 10t17 26t8.5 34t2.5 35v35l26 9 q0 -11 3 -30t9 -37t15.5 -31.5t23.5 -13.5q24 0 33 24t9 51q0 15 -1.5 36.5t-3.5 30.5l31 7v-91zM303 665q-15 5 -28.5 9t-26.5 9q-16 -25 -41.5 -46.5t-54 -38.5t-58 -30.5t-54.5 -22.5q-4 14 -7.5 22.5t-5.5 20.5q11 1 25 7l23 10q1 5 1 9.5v7.5q0 10 -2.5 22t-9.5 22 t-18.5 16.5t-29.5 6.5q-12 0 -22 -3q-6 14 -11 19.5t-12 18.5q19 6 37 6q40 0 66.5 -31.5t28.5 -85.5q13 6 30 16t33.5 21.5t30.5 23.5t21 21q-12 4 -26.5 7t-29.5 8t-28.5 13.5t-22.5 23.5q4 29 16 53t29.5 41.5t39.5 27.5t47 11q17 -8 31.5 -30t14.5 -48q0 -35 -8 -53 l-16 -35q11 -6 18.5 -6.5t19.5 -4.5v-38zM235 724q9 15 14.5 29.5t5.5 23.5q0 21 -8.5 37t-26.5 23q-30 0 -47.5 -18.5t-26.5 -53.5q9 -9 18 -14t19.5 -9t23 -8t28.5 -10z" />
<glyph unicode="&#xfc5f;" horiz-adv-x="318" arabic-form="isolated" d="M265 793q2 -18 -1 -35t-11.5 -30.5t-23 -21.5t-34.5 -8q-9 0 -26.5 11.5t-27.5 43.5q-3 -18 -8.5 -34.5t-14.5 -29.5t-22 -21t-31 -8q-19 0 -32 9.5t-21 24.5t-11.5 33.5t-3.5 37.5l-2 37l27 7l2 -45q0 -24 9 -45t32 -21q16 0 27 10t17 26t8.5 34t2.5 35v35l26 9 q0 -11 3 -30t9 -37t15.5 -31.5t23.5 -13.5q24 0 33 24t9 51q0 15 -1.5 36.5t-3.5 30.5l31 7v-91zM287 604l-240 -95v45l240 95v-45zM287 476l-240 -95v45l240 95v-45z" />
<glyph unicode="&#xfc60;" horiz-adv-x="318" arabic-form="isolated" d="M296 652q2 -18 -1 -35t-11.5 -30.5t-23 -21.5t-34.5 -8q-9 0 -26.5 11.5t-27.5 43.5q-3 -18 -8.5 -34.5t-14.5 -29.5t-22 -21t-31 -8q-19 0 -32 9.5t-21 24.5t-11.5 33.5t-3.5 37.5l-2 37l27 7l2 -45q0 -24 9 -45t32 -21q16 0 27 10t17 26t8.5 34t2.5 35v35l26 9 q0 -11 3 -30t9 -37t15.5 -31.5t23.5 -13.5q24 0 33 24t9 51q0 15 -1.5 36.5t-3.5 30.5l31 7v-91zM258 844l-240 -97v45l240 96v-44z" />
<glyph unicode="&#xfc61;" horiz-adv-x="318" arabic-form="isolated" d="M302 490q2 -18 -1 -35t-11.5 -30.5t-23 -21.5t-34.5 -8q-9 0 -26.5 11.5t-27.5 43.5q-3 -18 -8.5 -34.5t-14.5 -29.5t-22 -21t-31 -8q-19 0 -32 9.5t-21 24.5t-11.5 33.5t-3.5 37.5l-2 37l27 7l2 -45q0 -24 9 -45t32 -21q16 0 27 10t17 26t8.5 34t2.5 35v35l26 9 q0 -11 3 -30t9 -37t15.5 -31.5t23.5 -13.5q24 0 33 24t9 51q0 15 -1.5 36.5t-3.5 30.5l31 7v-91zM255 659q-19 8 -29.5 10.5t-26.5 13.5q-26 -38 -71 -74t-115 -62v50q48 13 89 37.5t67 56.5q-12 3 -26 8t-27.5 12t-25.5 15t-19 16q1 36 11 61t26.5 41t38 24t45.5 9 q18 -8 32 -34t14 -52q0 -7 -1.5 -17t-4.5 -21.5l-6 -22.5t-6 -20q9 -4 21 -8.5t23 -6.5zM190 723q9 14 12 26.5t3 22.5q0 43 -35 60q-29 0 -45 -15.5t-25 -49.5q16 -17 37.5 -24t52.5 -20z" />
<glyph unicode="&#xfc62;" horiz-adv-x="318" arabic-form="isolated" d="M286 793q2 -18 -1 -35t-11.5 -30.5t-23 -21.5t-34.5 -8q-9 0 -26.5 11.5t-27.5 43.5q-3 -18 -8.5 -34.5t-14.5 -29.5t-22 -21t-31 -8q-19 0 -32 9.5t-21 24.5t-11.5 33.5t-3.5 37.5l-2 37l27 7l2 -45q0 -24 9 -45t32 -21q16 0 27 10t17 26t8.5 34t2.5 35v35l26 9 q0 -11 3 -30t9 -37t15.5 -31.5t23.5 -13.5q24 0 33 24t9 51q0 15 -1.5 36.5t-3.5 30.5l31 7v-91zM300 599l-240 -97v45l240 96v-44z" />
<glyph unicode="&#xfc63;" horiz-adv-x="318" arabic-form="isolated" d="M281 574q2 -18 -1 -35t-11.5 -30.5t-23 -21.5t-34.5 -8q-9 0 -26.5 11.5t-27.5 43.5q-3 -18 -8.5 -34.5t-14.5 -29.5t-22 -21t-31 -8q-19 0 -32 9.5t-21 24.5t-11.5 33.5t-3.5 37.5l-2 37l27 7l2 -45q0 -24 9 -45t32 -21q16 0 27 10t17 26t8.5 34t2.5 35v35l26 9 q0 -11 3 -30t9 -37t15.5 -31.5t23.5 -13.5q24 0 33 24t9 51q0 15 -1.5 36.5t-3.5 30.5l31 7v-91zM128 680q0 61 -14.5 99.5t-34.5 70.5l39 35q18 -26 31 -62t13 -90q0 -4 -1 -11.5l-2 -15.5t-2 -15t-1 -11h-28z" />
<glyph unicode="&#xfd3c;" horiz-adv-x="384" arabic-form="final" d="M384 47h-59q-55 0 -91 10.5t-57.5 31.5t-30 54t-8.5 78v364h75v-364q0 -42 23.5 -61t88.5 -19h59v-94zM302 844l-240 -95v45l240 95v-45zM302 716l-240 -95v45l240 95v-45z" />
<glyph unicode="&#xfd3d;" horiz-adv-x="352" arabic-form="isolated" d="M302 844l-240 -95v45l240 95v-45zM302 716l-240 -95v45l240 95v-45zM213 47h-75v538h75v-538z" />
<glyph unicode="&#xfdfc;" horiz-adv-x="1415" arabic-form="isolated" d="M756 -28h-97v97h97v-97zM913 -28h-98v97h98v-97zM628 275q0 -98 -23 -167t-67.5 -113t-109 -64.5t-147.5 -20.5q-55 0 -96.5 13.5t-69.5 38.5t-42 58.5t-14 74.5q0 34 8 68.5t20.5 66t26.5 58.5t26 47l61 -28l-21.5 -40t-21 -48.5t-15.5 -57t-6 -66.5q0 -39 34.5 -65.5 t109.5 -26.5q70 0 121.5 12.5t85 43t49.5 81t16 126.5v532h75v-523zM1074 537q29 -79 39.5 -131t10.5 -79q0 -33 -13 -62.5t-38 -51t-62 -34.5t-86 -13q-55 0 -91 10.5t-57.5 31.5t-30 53.5t-8.5 77.5v459h75v-459q0 -40 23.5 -60t88.5 -20q64 0 93 21t29 47q0 15 -9.5 60.5 t-34.5 115.5zM977 40q64 23 119 52t95.5 62t63.5 69.5t23 74.5q0 23 -5 50t-13 52.5t-18 47t-20 34.5l59 58q13 -17 26.5 -45.5t24 -61.5t17.5 -68.5t7 -66.5q0 -56 -27.5 -107.5t-75 -96t-112.5 -81t-140 -62.5z" />
<glyph unicode="&#x621;" horiz-adv-x="375" arabic-form="isolated" d="M333 130q-25 -6 -51 -10t-57.5 -13.5t-71 -27t-91.5 -50.5l-39 81l35 20.5t31 17.5q-20 19 -31 40.5t-11 49.5t13 55.5t33 49t44 34.5t45 13q20 0 34 -2.5t25.5 -7.5t23 -13.5l26.5 -20.5l-49 -70q-14 11 -24.5 15.5t-35.5 4.5q-10 0 -21 -5t-20 -13t-15 -18.5t-6 -21.5 t19 -23.5t49 -22.5q36 12 67.5 18l62.5 12z" />
<glyph unicode="&#x622;" horiz-adv-x="352" arabic-form="isolated" d="M213 47h-75v538h75v-538zM366 779q-21 -13 -45.5 -26t-51.5 -23.5t-56 -17.5t-58 -7q-58 0 -98 9q-5 -15 -6 -34t-1 -34h-50q0 13 2 31.5t7 38t13 39t20 33.5q11 -7 36.5 -13.5t76.5 -6.5q25 0 50.5 6t49.5 15.5t45.5 21t38.5 22.5z" />
<glyph unicode="&#x622;" horiz-adv-x="384" arabic-form="final" d="M384 47h-59q-55 0 -91 10.5t-57.5 31.5t-30 54t-8.5 78v364h75v-364q0 -42 23.5 -61t88.5 -19h59v-94zM366 779q-21 -13 -45.5 -26t-51.5 -23.5t-56 -17.5t-58 -7q-58 0 -98 9q-5 -15 -6 -34t-1 -34h-50q0 13 2 31.5t7 38t13 39t20 33.5q11 -7 36.5 -13.5t76.5 -6.5 q25 0 50.5 6t49.5 15.5t45.5 21t38.5 22.5z" />
<glyph unicode="&#x623;" horiz-adv-x="352" arabic-form="isolated" d="M311 691q-26 -5 -48.5 -10t-48.5 -13.5t-59.5 -22.5t-82.5 -37l-22 57q21 11 38 19l32 15q-18 15 -30 34t-12 42q0 22 11 43.5t28 38t36 27t36 10.5q39 0 59.5 -15.5t40.5 -38.5l-37 -41q-12 14 -24.5 22.5t-38.5 8.5q-9 0 -19.5 -4.5t-20 -12t-15.5 -17.5t-6 -21 q0 -12 18.5 -24t45.5 -23q31 10 57.5 15t52.5 11zM213 47h-75v538h75v-538z" />
<glyph unicode="&#x623;" horiz-adv-x="384" arabic-form="final" d="M300 695q-26 -5 -48.5 -10t-48.5 -13.5t-59.5 -22.5t-82.5 -37l-22 57q21 11 38 19l32 15q-18 15 -30 34t-12 42q0 22 11 43.5t28 38t36 27t36 10.5q39 0 59.5 -15.5t40.5 -38.5l-37 -41q-12 14 -24.5 22.5t-38.5 8.5q-9 0 -19.5 -4.5t-20 -12t-15.5 -17.5t-6 -21 q0 -12 18.5 -24t45.5 -23q31 10 57.5 15t52.5 11zM384 47h-59q-55 0 -91 10.5t-57.5 31.5t-30 54t-8.5 78v364h75v-364q0 -42 23.5 -61t88.5 -19h59v-94z" />
<glyph unicode="&#x624;" horiz-adv-x="526" arabic-form="isolated" d="M404 575q-26 -5 -48.5 -10t-48.5 -13.5t-59.5 -22.5t-82.5 -37l-22 57q21 11 38 19l32 15q-18 15 -30 34t-12 42q0 22 11 43.5t28 38t36 27t36 10.5q39 0 59.5 -15.5t40.5 -38.5l-37 -41q-12 14 -24.5 22.5t-38.5 8.5q-9 0 -19.5 -4.5t-20 -12t-15.5 -17.5t-6 -21 q0 -12 18.5 -24t45.5 -23q31 10 57.5 15t52.5 11zM80 -137l1 2q76 30 129 59.5t87 59t52 58t26 57.5q-19 -6 -37 -8.5t-39 -2.5q-19 0 -45 2.5t-50 14t-40.5 34.5t-16.5 64q0 31 13.5 69t35 71.5t47.5 56t52 22.5q37 0 67 -24t51.5 -61t33 -82.5t11.5 -87.5q0 -34 -4 -68 t-17 -67t-37 -65.5t-63 -64.5t-96 -63.5t-136 -62.5zM381 199q-4 24 -11.5 47.5t-18 41.5t-24.5 29.5t-32 11.5q-12 0 -25 -13t-23.5 -32.5t-17 -41t-6.5 -39.5q0 -8 8.5 -12t20.5 -6t25 -2.5t22 -0.5q45 0 82 17z" />
<glyph unicode="&#x624;" horiz-adv-x="613" arabic-form="final" d="M404 575q-26 -5 -48.5 -10t-48.5 -13.5t-59.5 -22.5t-82.5 -37l-22 57q21 11 38 19l32 15q-18 15 -30 34t-12 42q0 22 11 43.5t28 38t36 27t36 10.5q39 0 59.5 -15.5t40.5 -38.5l-37 -41q-12 14 -24.5 22.5t-38.5 8.5q-9 0 -19.5 -4.5t-20 -12t-15.5 -17.5t-6 -21 q0 -12 18.5 -24t45.5 -23q31 10 57.5 15t52.5 11zM613 47h-28.5t-43 0.5l-47.5 1t-42 1.5q-12 -36 -35 -71t-62 -69t-97.5 -67.5t-142.5 -66.5l-27 89q66 25 113.5 49.5t81 49t54.5 48.5t33 48q-38 6 -75 16.5t-66 27.5t-46.5 41.5t-17.5 57.5q0 31 13.5 69t34.5 71.5 t47.5 56t52.5 22.5q37 0 66 -24t48.5 -61t29.5 -82.5t10 -87.5v-25h37t44 -0.5t40 -0.5h25v-94zM391 146q0 5 0.5 11t0.5 10q0 27 -5 55.5t-15 52t-25 39t-34 15.5q-13 0 -26 -13t-23 -32.5t-16.5 -41t-6.5 -39.5q0 -13 12.5 -22.5t33.5 -16t48 -11t56 -7.5z" />
<glyph unicode="&#x625;" horiz-adv-x="318" arabic-form="isolated" d="M272 -218q-23 -5 -42 -8.5t-44 -11.5t-60.5 -22.5t-92.5 -41.5l-22 58l38 18.5t33 15.5q-19 15 -30.5 33.5t-11.5 42.5q0 22 11 43.5t27.5 38t35.5 26.5t36 10q19 0 33.5 -4t26 -11.5t21 -17l19.5 -20.5l-37 -41q-13 13 -24.5 22t-38.5 9q-9 0 -19.5 -5t-19.5 -12.5 t-15.5 -17.5t-6.5 -20q0 -13 18.5 -25t45.5 -23q35 14 59.5 17.5t50.5 9.5zM183 47h-76v713h76v-713z" />
<glyph unicode="&#x625;" horiz-adv-x="322" arabic-form="final" d="M322 47h-28q-55 0 -91 10.5t-57.5 31.5t-30 54t-8.5 78v539h76v-539q0 -42 22.5 -61t88.5 -19h28v-94zM272 -218q-23 -5 -42 -8.5t-44 -11.5t-60.5 -22.5t-92.5 -41.5l-22 58l38 18.5t33 15.5q-19 15 -30.5 33.5t-11.5 42.5q0 22 11 43.5t27.5 38t35.5 26.5t36 10 q19 0 33.5 -4t26 -11.5t21 -17l19.5 -20.5l-37 -41q-13 13 -24.5 22t-38.5 9q-9 0 -19.5 -5t-19.5 -12.5t-15.5 -17.5t-6.5 -20q0 -13 18.5 -25t45.5 -23q35 14 59.5 17.5t50.5 9.5z" />
<glyph unicode="&#x626;" horiz-adv-x="875" arabic-form="isolated" d="M762 250q-19 30 -37.5 43t-38.5 13q-26 0 -53 -11t-49.5 -27.5t-37 -36t-14.5 -35.5q0 -5 2.5 -9t11 -8t23.5 -9t41 -12q45 -13 73 -26t44 -29t21.5 -36.5t5.5 -48.5q0 -32 -23 -58t-61.5 -46.5t-87.5 -36t-100 -25.5t-101 -15t-89 -5q-115 0 -175.5 47t-60.5 138 q0 34 8.5 68.5t20.5 66t26.5 58.5t26.5 47l61 -28l-21.5 -40.5t-21 -48.5t-16 -56.5t-6.5 -66.5q0 -45 38.5 -68.5t119.5 -23.5q33 0 74 2.5t83.5 8t83.5 13t72.5 18t51 23t19.5 28.5q0 7 -3 12.5t-12 11t-26.5 11.5t-45.5 14q-44 12 -70 24t-40 27t-18.5 34t-4.5 44 q0 31 21.5 67t55.5 67t74.5 51t78.5 20q36 0 71.5 -23.5t67.5 -75.5zM500 518q-26 -5 -48.5 -10t-48.5 -13.5t-59.5 -22.5t-82.5 -37l-22 57q21 11 38 19l32 15q-18 15 -30 34t-12 42q0 22 11 43.5t28 38t36 27t36 10.5q39 0 59.5 -15.5t40.5 -38.5l-37 -41 q-12 14 -24.5 22.5t-38.5 8.5q-9 0 -19.5 -4.5t-20 -12t-15.5 -17.5t-6 -21q0 -12 18.5 -24t45.5 -23q31 10 57.5 15t52.5 11z" />
<glyph unicode="&#x626;" horiz-adv-x="818" arabic-form="final" d="M621.506 325.714q-23.4004 -4.5 -43.6504 -9q-20.251 -4.5 -43.6514 -12.1504q-23.4014 -7.65039 -53.5518 -20.251q-30.1504 -12.5996 -74.252 -33.3008l-19.8008 51.3018q18.9004 9.90039 34.2012 17.1006l28.8008 13.5q-16.2002 13.5 -27.001 30.6006 q-10.7998 17.1006 -10.7998 37.8018q0 19.7998 9.90039 39.1504t25.2002 34.2012q15.3008 14.8506 32.4014 24.3008q17.0996 9.4502 32.4004 9.4502q35.1016 0 53.5518 -13.9502t36.4512 -34.6514l-33.3018 -36.9004q-10.7998 12.5996 -22.0498 20.25 q-11.251 7.65039 -34.6514 7.65039q-8.09961 0 -17.5508 -4.0498q-9.4502 -4.05078 -18 -10.8008q-8.55078 -6.75 -13.9502 -15.75q-5.40039 -9 -5.40039 -18.9004q0 -10.8008 16.6504 -21.6006q16.6504 -10.8008 40.9512 -20.7012q27.9004 9.00098 51.751 13.501 q23.8516 4.5 47.252 9.90039zM818 47q-31 0 -55.5 2t-46.5 6t-43 8.5l-45 9.5q46 -31 70 -60.5t24 -61.5q0 -24 -19 -43.5t-51 -35t-73.5 -27t-87.5 -19.5t-92.5 -12t-87.5 -4q-56 0 -102.5 11.5t-80.5 35t-53 59t-19 84.5q0 34 8.5 68.5t21 65.5t26.5 58t26 48l61 -29 l-21.5 -40t-21 -48.5t-16 -57.5t-6.5 -65q0 -25 14 -43t38 -30t56 -18t69 -6q51 0 109.5 3t108.5 9t83.5 15t33.5 21q0 19 -30 44t-96 59l44 101q33 0 63 -2t60.5 -5t62.5 -5t68 -2v-94z" />
<glyph unicode="&#x626;" horiz-adv-x="344" arabic-form="initial" d="M180 208q0 32 -11.5 80t-33.5 118l78 7q13 -38 21.5 -67t13.5 -53t7 -44t2 -41q0 -32 -16 -61.5t-44.5 -51.5t-68.5 -35t-88 -13h-40q-18 0 -34 6v88h74q64 0 102 20t38 47zM263.619 558.909q-23.3105 -4.49316 -43.4824 -8.98535q-20.1719 -4.49316 -43.4824 -12.1318 t-53.3447 -20.2188q-30.0342 -12.5811 -73.9648 -33.249l-19.7236 51.2217q18.8271 9.88477 34.0684 17.0732l28.6895 13.4795q-16.1377 13.4795 -26.8965 30.5527q-10.7588 17.0742 -10.7588 37.7422q0 19.7695 9.8623 39.0898t25.1035 34.1475 q15.2412 14.8281 32.2754 24.2637t32.2754 9.43555q34.9658 0 53.3447 -13.9287t36.3105 -34.5977l-33.1729 -36.8428q-10.7578 12.5801 -21.9648 20.2188t-34.5176 7.63867q-8.06836 0 -17.4824 -4.04395t-17.9307 -10.7842q-8.51758 -6.73926 -13.8965 -15.7256 q-5.37988 -8.98633 -5.37988 -18.8711q0 -10.7832 16.5869 -21.5664q16.5859 -10.7842 40.792 -20.6689q27.793 8.98633 51.5518 13.4795t47.0684 9.88477z" />
<glyph unicode="&#x626;" horiz-adv-x="344" arabic-form="medial" d="M344 47q-72 0 -112.5 13.5t-62.5 39.5q-47 -53 -151 -53h-18q-18 0 -34 6v88h52q61 0 90 22t29 58v108h75v-108q0 -19 5 -34t19 -25t40 -15.5t68 -5.5v-94zM205.619 462.909q-23.3105 -4.49316 -43.4824 -8.98535q-20.1719 -4.49316 -43.4824 -12.1318t-53.3447 -20.2188 q-30.0342 -12.5811 -73.9648 -33.249l-19.7236 51.2217q18.8271 9.88477 34.0684 17.0732l28.6895 13.4795q-16.1377 13.4795 -26.8965 30.5527q-10.7588 17.0742 -10.7588 37.7422q0 19.7695 9.8623 39.0898t25.1035 34.1475q15.2412 14.8281 32.2754 24.2637 t32.2754 9.43555q34.9658 0 53.3447 -13.9287t36.3105 -34.5977l-33.1729 -36.8428q-10.7578 12.5801 -21.9648 20.2188t-34.5176 7.63867q-8.06836 0 -17.4824 -4.04395t-17.9307 -10.7842q-8.51758 -6.73926 -13.8965 -15.7256q-5.37988 -8.98633 -5.37988 -18.8711 q0 -10.7832 16.5869 -21.5664q16.5859 -10.7842 40.792 -20.6689q27.793 8.98633 51.5518 13.4795t47.0684 9.88477z" />
<glyph unicode="&#x627;" horiz-adv-x="297" arabic-form="isolated" d="M183 47h-76v713h76v-713z" />
<glyph unicode="&#x627;" horiz-adv-x="322" arabic-form="final" d="M322 47h-28q-55 0 -91 10.5t-57.5 31.5t-30 54t-8.5 78v539h76v-539q0 -42 22.5 -61t88.5 -19h28v-94z" />
<glyph unicode="&#x628;" horiz-adv-x="1078" arabic-form="isolated" d="M151 262q0 -27 19 -47.5t53 -35t80.5 -22.5t101.5 -10q70 -2 140.5 3.5t134 14.5t117 20t89.5 20q28 8 40.5 14.5t12.5 14.5q0 32 -11 80t-33 118l78 7q12 -39 20 -68t13.5 -52.5t7.5 -43.5t2 -41q0 -56 -27.5 -83t-81.5 -41l-83.5 -22t-105.5 -21.5t-136.5 -15.5 t-176.5 -4q-71 1 -133 11t-107.5 31.5t-72 56t-26.5 86.5q0 21 4 46.5t10.5 52t14.5 52.5t16 49l75 -17q-14 -42 -24.5 -81.5t-10.5 -71.5zM566 -182h-98v98h98v-98z" />
<glyph unicode="&#x628;" horiz-adv-x="1142" arabic-form="final" d="M73 226q-2 21 0.5 46t7.5 52t11.5 54l12.5 50l76 -13q-12 -43 -21.5 -89t-7.5 -78q1 -27 20.5 -46t52.5 -31t79 -17.5t101 -5.5q70 0 139 4.5t130.5 13.5t111.5 21t83 27q17 8 30 24t23 36t17.5 41.5l13.5 39.5l8 27l67 -27l-16 -56t-9 -34t-3.5 -19.5t-0.5 -12.5 q0 -14 6.5 -29.5t22.5 -29t44 -22.5t70 -9v-94q-45 0 -79.5 10t-59 25.5t-40.5 35t-25 38.5q-21 -27 -58 -46.5t-98.5 -32t-153.5 -19t-223 -6.5q-71 0 -130.5 7.5t-103 27t-69.5 52.5t-29 85zM566 -182h-98v98h98v-98z" />
<glyph unicode="&#x628;" horiz-adv-x="318" arabic-form="initial" d="M180 208q0 32 -11.5 80t-33.5 118l78 7q13 -38 21.5 -67t13.5 -53t7 -44t2 -41q0 -32 -16 -61.5t-44.5 -51.5t-68.5 -35t-88 -13h-40q-18 0 -34 6v88h74q64 0 102 20t38 47zM176 -182h-98v98h98v-98z" />
<glyph unicode="&#x628;" horiz-adv-x="344" arabic-form="medial" d="M344 47q-72 0 -112.5 13.5t-62.5 39.5q-47 -53 -151 -53h-18q-18 0 -34 6v88h52q61 0 90 22t29 58v108h75v-108q0 -19 5 -34t19 -25t40 -15.5t68 -5.5v-94zM176 -179h-98v98h98v-98z" />
<glyph unicode="&#x629;" horiz-adv-x="535" arabic-form="isolated" d="M213 485q40 -14 87.5 -41t88 -63t68 -79.5t27.5 -90.5q0 -35 -24 -67t-60.5 -56t-80 -38.5t-83.5 -14.5q-38 0 -70.5 12t-56 33.5t-37 50.5t-13.5 63q0 37 17 81.5t41.5 86.5t51 75.5t44.5 47.5zM228 380q-16 -18 -33 -42t-30.5 -49t-22 -49.5t-8.5 -45.5 q0 -28 28.5 -46.5t73.5 -18.5q27 0 57.5 6.5t56 18t42.5 26t17 31.5q0 24 -17 48.5t-43 46.5t-58 41t-63 33zM188 563h-98v98h98v-98zM332 563h-98v98h98v-98z" />
<glyph unicode="&#x629;" horiz-adv-x="570" arabic-form="final" d="M289 650h-98v98h98v-98zM433 650h-98v98h98v-98zM570 47q-29 0 -57 2.5t-53.5 14t-47 35t-36.5 66.5l-14 -62q-47 1 -98.5 5.5t-94.5 18.5t-70.5 40t-27.5 71q0 42 17.5 79.5t48 69t72.5 56.5t91 43l-16 71l73 21l81 -355q7 -32 20 -48.5t31 -24t38.5 -8.5t42.5 -1v-94z M321 395q-38 -13 -70 -30t-55.5 -37t-36.5 -43t-13 -47q0 -12 19.5 -19.5t51 -12t71 -6.5l78.5 -4z" />
<glyph unicode="&#x62a;" horiz-adv-x="1078" arabic-form="isolated" d="M151 262q0 -27 19 -47.5t53 -35t80.5 -22.5t101.5 -10q70 -2 140.5 3.5t134 14.5t117 20t89.5 20q28 8 40.5 14.5t12.5 14.5q0 32 -11 80t-33 118l78 7q12 -39 20 -68t13.5 -52.5t7.5 -43.5t2 -41q0 -56 -27.5 -83t-81.5 -41l-83.5 -22t-105.5 -21.5t-136.5 -15.5 t-176.5 -4q-71 1 -133 11t-107.5 31.5t-72 56t-26.5 86.5q0 21 4 46.5t10.5 52t14.5 52.5t16 49l75 -17q-14 -42 -24.5 -81.5t-10.5 -71.5zM508 469h-98v98h98v-98zM652 469h-98v98h98v-98z" />
<glyph unicode="&#x62a;" horiz-adv-x="1142" arabic-form="final" d="M73 226q-2 21 0.5 46t7.5 52t11.5 54l12.5 50l76 -13q-12 -43 -21.5 -89t-7.5 -78q1 -27 20.5 -46t52.5 -31t79 -17.5t101 -5.5q70 0 139 4.5t130.5 13.5t111.5 21t83 27q17 8 30 24t23 36t17.5 41.5l13.5 39.5l8 27l67 -27l-16 -56t-9 -34t-3.5 -19.5t-0.5 -12.5 q0 -14 6.5 -29.5t22.5 -29t44 -22.5t70 -9v-94q-45 0 -79.5 10t-59 25.5t-40.5 35t-25 38.5q-21 -27 -58 -46.5t-98.5 -32t-153.5 -19t-223 -6.5q-71 0 -130.5 7.5t-103 27t-69.5 52.5t-29 85zM556 475h-98v98h98v-98zM700 475h-98v98h98v-98z" />
<glyph unicode="&#x62a;" horiz-adv-x="344" arabic-form="initial" d="M180 208q0 32 -11.5 80t-33.5 118l78 7q13 -38 21.5 -67t13.5 -53t7 -44t2 -41q0 -32 -16 -61.5t-44.5 -51.5t-68.5 -35t-88 -13h-40q-18 0 -34 6v88h74q64 0 102 20t38 47zM103 562h-98v98h98v-98zM247 562h-98v98h98v-98z" />
<glyph unicode="&#x62a;" horiz-adv-x="344" arabic-form="medial" d="M344 47q-72 0 -112.5 13.5t-62.5 39.5q-47 -53 -151 -53h-18q-18 0 -34 6v88h52q61 0 90 22t29 58v108h75v-108q0 -19 5 -34t19 -25t40 -15.5t68 -5.5v-94zM103 472h-98v98h98v-98zM247 472h-98v98h98v-98z" />
<glyph unicode="&#x62b;" horiz-adv-x="1078" arabic-form="isolated" d="M151 262q0 -27 19 -47.5t53 -35t80.5 -22.5t101.5 -10q70 -2 140.5 3.5t134 14.5t117 20t89.5 20q28 8 40.5 14.5t12.5 14.5q0 32 -11 80t-33 118l78 7q12 -39 20 -68t13.5 -52.5t7.5 -43.5t2 -41q0 -56 -27.5 -83t-81.5 -41l-83.5 -22t-105.5 -21.5t-136.5 -15.5 t-176.5 -4q-71 1 -133 11t-107.5 31.5t-72 56t-26.5 86.5q0 21 4 46.5t10.5 52t14.5 52.5t16 49l75 -17q-14 -42 -24.5 -81.5t-10.5 -71.5zM506 473h-98v98h98v-98zM658 473h-98v98h98v-98zM581 621h-97v98h97v-98z" />
<glyph unicode="&#x62b;" horiz-adv-x="1142" arabic-form="final" d="M73 226q-2 21 0.5 46t7.5 52t11.5 54l12.5 50l76 -13q-12 -43 -21.5 -89t-7.5 -78q1 -27 20.5 -46t52.5 -31t79 -17.5t101 -5.5q70 0 139 4.5t130.5 13.5t111.5 21t83 27q17 8 30 24t23 36t17.5 41.5l13.5 39.5l8 27l67 -27l-16 -56t-9 -34t-3.5 -19.5t-0.5 -12.5 q0 -14 6.5 -29.5t22.5 -29t44 -22.5t70 -9v-94q-45 0 -79.5 10t-59 25.5t-40.5 35t-25 38.5q-21 -27 -58 -46.5t-98.5 -32t-153.5 -19t-223 -6.5q-71 0 -130.5 7.5t-103 27t-69.5 52.5t-29 85zM544 473h-98v98h98v-98zM696 473h-98v98h98v-98zM619 621h-97v98h97v-98z" />
<glyph unicode="&#x62b;" horiz-adv-x="344" arabic-form="initial" d="M180 208q0 32 -11.5 80t-33.5 118l78 7q13 -38 21.5 -67t13.5 -53t7 -44t2 -41q0 -32 -16 -61.5t-44.5 -51.5t-68.5 -35t-88 -13h-40q-18 0 -34 6v88h74q64 0 102 20t38 47zM99 548h-98v98h98v-98zM251 548h-98v98h98v-98zM174 696h-97v98h97v-98z" />
<glyph unicode="&#x62b;" horiz-adv-x="344" arabic-form="medial" d="M344 47q-72 0 -112.5 13.5t-62.5 39.5q-47 -53 -151 -53h-18q-18 0 -34 6v88h52q61 0 90 22t29 58v108h75v-108q0 -19 5 -34t19 -25t40 -15.5t68 -5.5v-94zM98 467h-98v98h98v-98zM250 467h-98v98h98v-98zM173 615h-97v98h97v-98z" />
<glyph unicode="&#x62c;" horiz-adv-x="736" arabic-form="isolated" d="M634 -151q-24 -2 -45.5 -7t-49 -10.5t-66.5 -11t-99 -8.5q-57 -3 -112 6.5t-98.5 39t-70 82t-26.5 135.5q0 58 26.5 104.5t69 83t95.5 64t106 47.5l-126 68q-15 8 -23.5 11.5t-17.5 3.5q-4 0 -9.5 -3.5t-9.5 -7.5l-66 -72l-45 43l57 92q8 15 28.5 28t40.5 13 q18 0 34.5 -5.5t45.5 -19.5l161 -87q14 -7 34 -11t41 -6.5t41.5 -3t35.5 -0.5h71v-94h-63q-30 0 -74.5 -6t-94.5 -18.5t-99.5 -32t-89.5 -47t-65 -63.5t-25 -81q0 -55 19.5 -91t51 -56t70.5 -27t79 -4q100 7 161 17t94 18zM487 52h-98v98h98v-98z" />
<glyph unicode="&#x62c;" horiz-adv-x="736" arabic-form="final" d="M637 -155l-46.5 -14t-62 -15t-76 -12t-88.5 -5q-54 0 -107 12t-95.5 43t-68.5 84.5t-26 136.5q0 58 26.5 104.5t69 83t95.5 64t106 47.5l-126 68q-15 8 -23.5 11.5t-17.5 3.5q-4 0 -9.5 -3.5t-9.5 -7.5l-66 -72l-45 43l57 92q8 15 28.5 28t40.5 13q18 0 34.5 -5.5 t45.5 -19.5l161 -87q14 -7 34 -11t41 -6.5t41.5 -3t35.5 -0.5h71v-94h-75l33 -95q7 -20 16 -36t23 -27.5t33.5 -17.5t48.5 -6v-94q-45 0 -76.5 11.5t-53.5 32.5t-36.5 50t-24.5 64l-30 111q-36 -4 -77.5 -13t-82.5 -23.5t-79 -34.5t-66.5 -45.5t-46 -56.5t-17.5 -68 q0 -55 19 -91.5t50 -58t70 -30t79 -8.5q91 0 156.5 13t97.5 23zM428 46h-98v98h98v-98z" />
<glyph unicode="&#x62c;" horiz-adv-x="736" arabic-form="initial" d="M667 219h-62q-37 0 -63 -14t-49 -32q-18 -14 -49.5 -35.5t-70.5 -41.5t-81.5 -34.5t-82.5 -14.5h-209q-18 0 -34 6v88h243q31 0 65 11t66 27t59 33.5t43 30.5q-6 2 -13.5 5.5t-12.5 6.5l-169 99q-15 9 -24 12t-17 3q-6 0 -14 -4t-13 -9l-64 -70l-47 46l60 89 q14 20 36.5 30.5t41.5 10.5q32 0 78 -25l168 -99q14 -8 30 -13t37 -7.5t48 -3.5t65 -1h35v-94zM289 -179h-98v98h98v-98z" />
<glyph unicode="&#x62c;" horiz-adv-x="751" arabic-form="medial" d="M751 47q-58 0 -96.5 5t-64 18.5t-41.5 37t-29 61.5l-8 21q-21 -17 -55 -41.5t-74.5 -47t-85.5 -38.5t-90 -16h-207q-18 0 -34 6v88h241q30 0 64 11t66 27t59 33.5t43 30.5q-6 2 -13.5 5.5t-12.5 6.5l-169 99q-15 9 -24 12t-17 3q-6 0 -14 -4t-13 -9l-64 -70l-47 46l60 89 q14 20 36.5 30.5t41.5 10.5q32 0 78 -25l168 -99q14 -8 30 -13t37 -7.5t48 -3.5t65 -1h35v-94h-61q-8 0 -14.5 -0.5t-13.5 -1.5l7 -14q9 -17 20.5 -29t30 -19.5t47 -10.5t71.5 -3v-94zM289 -179h-98v98h98v-98z" />
<glyph unicode="&#x62d;" horiz-adv-x="736" arabic-form="isolated" d="M634 -151q-24 -2 -45.5 -7t-49 -10.5t-66.5 -11t-99 -8.5q-57 -3 -112 6.5t-98.5 39t-70 82t-26.5 135.5q0 58 26.5 104.5t69 83t95.5 64t106 47.5l-126 68q-15 8 -23.5 11.5t-17.5 3.5q-4 0 -9.5 -3.5t-9.5 -7.5l-66 -72l-45 43l57 92q8 15 28.5 28t40.5 13 q18 0 34.5 -5.5t45.5 -19.5l161 -87q14 -7 34 -11t41 -6.5t41.5 -3t35.5 -0.5h71v-94h-63q-30 0 -74.5 -6t-94.5 -18.5t-99.5 -32t-89.5 -47t-65 -63.5t-25 -81q0 -55 19.5 -91t51 -56t70.5 -27t79 -4q100 7 161 17t94 18z" />
<glyph unicode="&#x62d;" horiz-adv-x="736" arabic-form="final" d="M637 -155l-46.5 -14t-62 -15t-76 -12t-88.5 -5q-54 0 -107 12t-95.5 43t-68.5 84.5t-26 136.5q0 58 26.5 104.5t69 83t95.5 64t106 47.5l-126 68q-15 8 -23.5 11.5t-17.5 3.5q-4 0 -9.5 -3.5t-9.5 -7.5l-66 -72l-45 43l57 92q8 15 28.5 28t40.5 13q18 0 34.5 -5.5 t45.5 -19.5l161 -87q14 -7 34 -11t41 -6.5t41.5 -3t35.5 -0.5h71v-94h-75l33 -95q7 -20 16 -36t23 -27.5t33.5 -17.5t48.5 -6v-94q-45 0 -76.5 11.5t-53.5 32.5t-36.5 50t-24.5 64l-30 111q-36 -4 -77.5 -13t-82.5 -23.5t-79 -34.5t-66.5 -45.5t-46 -56.5t-17.5 -68 q0 -55 19 -91.5t50 -58t70 -30t79 -8.5q91 0 156.5 13t97.5 23z" />
<glyph unicode="&#x62d;" horiz-adv-x="736" arabic-form="initial" d="M667 219h-62q-37 0 -63 -14t-49 -32q-18 -14 -49.5 -35.5t-70.5 -41.5t-81.5 -34.5t-82.5 -14.5h-209q-18 0 -34 6v88h243q31 0 65 11t66 27t59 33.5t43 30.5q-6 2 -13.5 5.5t-12.5 6.5l-169 99q-15 9 -24 12t-17 3q-6 0 -14 -4t-13 -9l-64 -70l-47 46l60 89 q14 20 36.5 30.5t41.5 10.5q32 0 78 -25l168 -99q14 -8 30 -13t37 -7.5t48 -3.5t65 -1h35v-94z" />
<glyph unicode="&#x62d;" horiz-adv-x="751" arabic-form="medial" d="M751 47q-58 0 -96.5 5t-64 18.5t-41.5 37t-29 61.5l-8 21q-21 -17 -55 -41.5t-74.5 -47t-85.5 -38.5t-90 -16h-207q-18 0 -34 6v88h241q30 0 64 11t66 27t59 33.5t43 30.5q-6 2 -13.5 5.5t-12.5 6.5l-169 99q-15 9 -24 12t-17 3q-6 0 -14 -4t-13 -9l-64 -70l-47 46l60 89 q14 20 36.5 30.5t41.5 10.5q32 0 78 -25l168 -99q14 -8 30 -13t37 -7.5t48 -3.5t65 -1h35v-94h-61q-8 0 -14.5 -0.5t-13.5 -1.5l7 -14q9 -17 20.5 -29t30 -19.5t47 -10.5t71.5 -3v-94z" />
<glyph unicode="&#x62e;" horiz-adv-x="736" arabic-form="isolated" d="M634 -151q-24 -2 -45.5 -7t-49 -10.5t-66.5 -11t-99 -8.5q-57 -3 -112 6.5t-98.5 39t-70 82t-26.5 135.5q0 58 26.5 104.5t69 83t95.5 64t106 47.5l-126 68q-15 8 -23.5 11.5t-17.5 3.5q-4 0 -9.5 -3.5t-9.5 -7.5l-66 -72l-45 43l57 92q8 15 28.5 28t40.5 13 q18 0 34.5 -5.5t45.5 -19.5l161 -87q14 -7 34 -11t41 -6.5t41.5 -3t35.5 -0.5h71v-94h-63q-30 0 -74.5 -6t-94.5 -18.5t-99.5 -32t-89.5 -47t-65 -63.5t-25 -81q0 -55 19.5 -91t51 -56t70.5 -27t79 -4q100 7 161 17t94 18zM415 644h-98v98h98v-98z" />
<glyph unicode="&#x62e;" horiz-adv-x="736" arabic-form="final" d="M637 -155l-46.5 -14t-62 -15t-76 -12t-88.5 -5q-54 0 -107 12t-95.5 43t-68.5 84.5t-26 136.5q0 58 26.5 104.5t69 83t95.5 64t106 47.5l-126 68q-15 8 -23.5 11.5t-17.5 3.5q-4 0 -9.5 -3.5t-9.5 -7.5l-66 -72l-45 43l57 92q8 15 28.5 28t40.5 13q18 0 34.5 -5.5 t45.5 -19.5l161 -87q14 -7 34 -11t41 -6.5t41.5 -3t35.5 -0.5h71v-94h-75l33 -95q7 -20 16 -36t23 -27.5t33.5 -17.5t48.5 -6v-94q-45 0 -76.5 11.5t-53.5 32.5t-36.5 50t-24.5 64l-30 111q-36 -4 -77.5 -13t-82.5 -23.5t-79 -34.5t-66.5 -45.5t-46 -56.5t-17.5 -68 q0 -55 19 -91.5t50 -58t70 -30t79 -8.5q91 0 156.5 13t97.5 23zM415 644h-98v98h98v-98z" />
<glyph unicode="&#x62e;" horiz-adv-x="736" arabic-form="initial" d="M667 219h-62q-37 0 -63 -14t-49 -32q-18 -14 -49.5 -35.5t-70.5 -41.5t-81.5 -34.5t-82.5 -14.5h-209q-18 0 -34 6v88h243q31 0 65 11t66 27t59 33.5t43 30.5q-6 2 -13.5 5.5t-12.5 6.5l-169 99q-15 9 -24 12t-17 3q-6 0 -14 -4t-13 -9l-64 -70l-47 46l60 89 q14 20 36.5 30.5t41.5 10.5q32 0 78 -25l168 -99q14 -8 30 -13t37 -7.5t48 -3.5t65 -1h35v-94zM388 606h-98v98h98v-98z" />
<glyph unicode="&#x62e;" horiz-adv-x="751" arabic-form="medial" d="M751 47q-58 0 -96.5 5t-64 18.5t-41.5 37t-29 61.5l-8 21q-21 -17 -55 -41.5t-74.5 -47t-85.5 -38.5t-90 -16h-207q-18 0 -34 6v88h241q30 0 64 11t66 27t59 33.5t43 30.5q-6 2 -13.5 5.5t-12.5 6.5l-169 99q-15 9 -24 12t-17 3q-6 0 -14 -4t-13 -9l-64 -70l-47 46l60 89 q14 20 36.5 30.5t41.5 10.5q32 0 78 -25l168 -99q14 -8 30 -13t37 -7.5t48 -3.5t65 -1h35v-94h-61q-8 0 -14.5 -0.5t-13.5 -1.5l7 -14q9 -17 20.5 -29t30 -19.5t47 -10.5t71.5 -3v-94zM388 606h-98v98h98v-98z" />
<glyph unicode="&#x62f;" horiz-adv-x="562" arabic-form="isolated" d="M128 143q7 -4 19.5 -6.5t27 -4t30.5 -2t31 -0.5q31 0 65.5 -0.5t63 1.5t47.5 7.5t19 17.5q0 51 -14.5 94.5t-36.5 80t-48 66t-49 51.5l48 72q28 -25 61.5 -66.5t63 -94t49.5 -113.5t20 -125q0 -32 -27.5 -48t-68.5 -22.5t-88.5 -6.5h-88.5q-20 0 -43 0.5t-45.5 2t-41.5 5 t-31 9.5z" />
<glyph unicode="&#x62f;" horiz-adv-x="659" arabic-form="final" d="M659 46q-30 0 -52 1t-39 6.5t-31 16t-29 30.5q-24 -16 -43 -26.5t-38.5 -16.5t-42.5 -8.5t-56 -3.5q-20 -1 -53.5 -0.5l-69 1t-67 2t-47.5 3.5l35 94q7 -5 21.5 -6.5t32.5 -2.5t36 -1h33q57 -1 108 11t89 35l-42.5 83.5l-37.5 76.5l-34.5 72.5l-34.5 72.5l68 42l144 -299 q14 -31 28 -48.5t30.5 -26.5t38 -11.5t51.5 -2.5z" />
<glyph unicode="&#x630;" horiz-adv-x="562" arabic-form="isolated" d="M128 143q7 -4 19.5 -6.5t27 -4t30.5 -2t31 -0.5q31 0 65.5 -0.5t63 1.5t47.5 7.5t19 17.5q0 51 -14.5 94.5t-36.5 80t-48 66t-49 51.5l48 72q28 -25 61.5 -66.5t63 -94t49.5 -113.5t20 -125q0 -32 -27.5 -48t-68.5 -22.5t-88.5 -6.5h-88.5q-20 0 -43 0.5t-45.5 2t-41.5 5 t-31 9.5zM291 627h-98v98h98v-98z" />
<glyph unicode="&#x630;" horiz-adv-x="659" arabic-form="final" d="M659 46q-30 0 -52 1t-39 6.5t-31 16t-29 30.5q-24 -16 -43 -26.5t-38.5 -16.5t-42.5 -8.5t-56 -3.5q-20 -1 -53.5 -0.5l-69 1t-67 2t-47.5 3.5l35 94q7 -5 21.5 -6.5t32.5 -2.5t36 -1h33q57 -1 108 11t89 35l-42.5 83.5l-37.5 76.5l-34.5 72.5l-34.5 72.5l68 42l144 -299 q14 -31 28 -48.5t30.5 -26.5t38 -11.5t51.5 -2.5zM291 654h-98v98h98v-98z" />
<glyph unicode="&#x631;" horiz-adv-x="526" arabic-form="isolated" d="M40 -135q65 22 126.5 51t109 62.5t76.5 70.5t29 75q0 22 -5 48.5t-12.5 52t-17.5 47.5t-20 35l59 58q13 -17 26 -45t23.5 -61.5t17.5 -68.5t7 -66q0 -56 -33 -107.5t-88 -96.5t-126.5 -82t-147.5 -62z" />
<glyph unicode="&#x631;" horiz-adv-x="613" arabic-form="final" d="M613 47q-57 0 -93 9.5t-60 27.5q-11 -55 -50.5 -100t-94.5 -82t-118.5 -67t-122.5 -55l-32 84l120 56.5t112.5 61t83 71t32.5 87.5t-8.5 95.5t-22.5 80.5l73 28l31 -109q6 -21 14 -38t23.5 -29.5t42 -19.5t70.5 -7v-94z" />
<glyph unicode="&#x632;" horiz-adv-x="526" arabic-form="isolated" d="M40 -135q65 22 126.5 51t109 62.5t76.5 70.5t29 75q0 22 -5 48.5t-12.5 52t-17.5 47.5t-20 35l59 58q13 -17 26 -45t23.5 -61.5t17.5 -68.5t7 -66q0 -56 -33 -107.5t-88 -96.5t-126.5 -82t-147.5 -62zM329 528h-98v98h98v-98z" />
<glyph unicode="&#x632;" horiz-adv-x="613" arabic-form="final" d="M613 47q-57 0 -93 9.5t-60 27.5q-11 -55 -50.5 -100t-94.5 -82t-118.5 -67t-122.5 -55l-32 84l120 56.5t112.5 61t83 71t32.5 87.5t-8.5 95.5t-22.5 80.5l73 28l31 -109q6 -21 14 -38t23.5 -29.5t42 -19.5t70.5 -7v-94zM329 528h-98v98h98v-98z" />
<glyph unicode="&#x633;" horiz-adv-x="1252" arabic-form="isolated" d="M1191 208q0 -32 -15 -61.5t-40.5 -51.5t-58.5 -35t-69 -13q-35 0 -69.5 14t-57.5 47q-21 -27 -51 -44t-68 -17q-24 0 -42.5 2t-34.5 10v-6q0 -68 -36.5 -113.5t-95 -73.5t-130.5 -40t-144 -12q-55 0 -96.5 14t-69.5 38.5t-42 58.5t-14 75q0 34 8 68t20.5 65.5t26.5 58.5 t26 48l61 -29q-10 -18 -21 -40t-20.5 -48.5t-16 -57t-6.5 -65.5q0 -42 34.5 -67t109.5 -25q58 0 117 7.5t106 24.5t76.5 44.5t29.5 68.5q0 50 -22 94t-46 82l65 47l32 -49q20 -34 49 -60t76 -26q21 0 37.5 9t27.5 21.5t17 26t6 23.5v71h75v-76q0 -21 7.5 -35.5t19.5 -23 t27 -12.5t29 -4q21 0 40.5 5.5t34 14.5t23.5 21t9 26q0 32 -11.5 80t-33.5 118l78 7q12 -39 20 -68t13.5 -52t7.5 -43t2 -42z" />
<glyph unicode="&#x633;" horiz-adv-x="1307" arabic-form="final" d="M1307 47h-52q-36 0 -70 15.5t-58 47.5q-20 -27 -50 -45t-69 -18q-35 0 -69.5 14t-57.5 47q-21 -27 -51 -44t-68 -17q-24 0 -42.5 2t-34.5 10v-6q0 -68 -36.5 -113.5t-95 -73.5t-130.5 -40t-144 -12q-55 0 -96.5 14t-69.5 38.5t-42 58.5t-14 75q0 34 8 68t20.5 65.5 t26.5 58.5t26 48l61 -29q-10 -18 -21 -40t-20.5 -48.5t-16 -57t-6.5 -65.5q0 -42 34.5 -67t109.5 -25q58 0 117 7.5t106 24.5t76.5 44.5t29.5 68.5q0 50 -22 94t-46 82l65 47l32 -49q20 -34 49 -60t76 -26q21 0 37.5 9t27.5 21.5t17 26t6 23.5v71h75v-76q0 -21 7.5 -35.5 t19.5 -23t27 -12.5t29 -4q22 0 38.5 9.5t27.5 22.5t17 27t6 23v69h75v-73q0 -21 7.5 -36t19.5 -24.5t26.5 -13.5t29.5 -4h52v-94z" />
<glyph unicode="&#x633;" horiz-adv-x="929" arabic-form="initial" d="M792 208q0 32 -11.5 80t-33.5 118l78 7q12 -39 20 -68t13.5 -52t7.5 -43t2 -42q0 -32 -15 -61.5t-40.5 -51.5t-58 -35t-68.5 -13q-35 0 -70 14t-58 47q-20 -27 -50 -44t-69 -17q-35 0 -69.5 12.5t-57.5 45.5q-23 -26 -57.5 -42t-73.5 -16h-181q-18 0 -34 6v88h215 q22 0 40 8.5t31.5 20.5t21 25t7.5 23v74h75v-78q0 -21 7.5 -35t19.5 -22.5t26.5 -12t29.5 -3.5q21 0 37.5 9t28 21.5t17 26t5.5 23.5v71h76v-76q0 -21 7.5 -35.5t19.5 -23t26.5 -12.5t29.5 -4q21 0 40 5.5t33.5 14.5t23.5 21t9 26z" />
<glyph unicode="&#x633;" horiz-adv-x="984" arabic-form="medial" d="M984 47h-52q-35 0 -69.5 15t-57.5 48q-21 -27 -51 -45t-68 -18q-35 0 -70 14t-58 47q-20 -27 -50 -44t-69 -17q-35 0 -69.5 12.5t-57.5 45.5q-23 -26 -57.5 -42t-73.5 -16h-181q-18 0 -34 6v88h215q22 0 40 8.5t31.5 20.5t21 25t7.5 23v74h75v-78q0 -21 7.5 -35 t19.5 -22.5t26.5 -12t29.5 -3.5q21 0 37.5 9t28 21.5t17 26t5.5 23.5v71h76v-76q0 -21 7.5 -35.5t19.5 -23t26.5 -12.5t29.5 -4q21 0 37.5 9.5t27.5 22.5t17 27t6 23v69h75v-73q0 -21 7.5 -36t19.5 -24.5t26.5 -13.5t29.5 -4h52v-94z" />
<glyph unicode="&#x634;" horiz-adv-x="1252" arabic-form="isolated" d="M1191 208q0 -32 -15 -61.5t-40.5 -51.5t-58.5 -35t-69 -13q-35 0 -69.5 14t-57.5 47q-21 -27 -51 -44t-68 -17q-24 0 -42.5 2t-34.5 10v-6q0 -68 -36.5 -113.5t-95 -73.5t-130.5 -40t-144 -12q-55 0 -96.5 14t-69.5 38.5t-42 58.5t-14 75q0 34 8 68t20.5 65.5t26.5 58.5 t26 48l61 -29q-10 -18 -21 -40t-20.5 -48.5t-16 -57t-6.5 -65.5q0 -42 34.5 -67t109.5 -25q58 0 117 7.5t106 24.5t76.5 44.5t29.5 68.5q0 50 -22 94t-46 82l65 47l32 -49q20 -34 49 -60t76 -26q21 0 37.5 9t27.5 21.5t17 26t6 23.5v71h75v-76q0 -21 7.5 -35.5t19.5 -23 t27 -12.5t29 -4q21 0 40.5 5.5t34 14.5t23.5 21t9 26q0 32 -11.5 80t-33.5 118l78 7q12 -39 20 -68t13.5 -52t7.5 -43t2 -42zM833 470h-98v98h98v-98zM985 470h-98v98h98v-98zM908 618h-97v98h97v-98z" />
<glyph unicode="&#x634;" horiz-adv-x="1307" arabic-form="final" d="M1307 47h-52q-36 0 -70 15.5t-58 47.5q-20 -27 -50 -45t-69 -18q-35 0 -69.5 14t-57.5 47q-21 -27 -51 -44t-68 -17q-24 0 -42.5 2t-34.5 10v-6q0 -68 -36.5 -113.5t-95 -73.5t-130.5 -40t-144 -12q-55 0 -96.5 14t-69.5 38.5t-42 58.5t-14 75q0 34 8 68t20.5 65.5 t26.5 58.5t26 48l61 -29q-10 -18 -21 -40t-20.5 -48.5t-16 -57t-6.5 -65.5q0 -42 34.5 -67t109.5 -25q58 0 117 7.5t106 24.5t76.5 44.5t29.5 68.5q0 50 -22 94t-46 82l65 47l32 -49q20 -34 49 -60t76 -26q21 0 37.5 9t27.5 21.5t17 26t6 23.5v71h75v-76q0 -21 7.5 -35.5 t19.5 -23t27 -12.5t29 -4q22 0 38.5 9.5t27.5 22.5t17 27t6 23v69h75v-73q0 -21 7.5 -36t19.5 -24.5t26.5 -13.5t29.5 -4h52v-94zM833 470h-98v98h98v-98zM985 470h-98v98h98v-98zM908 618h-97v98h97v-98z" />
<glyph unicode="&#x634;" horiz-adv-x="929" arabic-form="initial" d="M792 208q0 32 -11.5 80t-33.5 118l78 7q12 -39 20 -68t13.5 -52t7.5 -43t2 -42q0 -32 -15 -61.5t-40.5 -51.5t-58 -35t-68.5 -13q-35 0 -70 14t-58 47q-20 -27 -50 -44t-69 -17q-35 0 -69.5 12.5t-57.5 45.5q-23 -26 -57.5 -42t-73.5 -16h-181q-18 0 -34 6v88h215 q22 0 40 8.5t31.5 20.5t21 25t7.5 23v74h75v-78q0 -21 7.5 -35t19.5 -22.5t26.5 -12t29.5 -3.5q21 0 37.5 9t28 21.5t17 26t5.5 23.5v71h76v-76q0 -21 7.5 -35.5t19.5 -23t26.5 -12.5t29.5 -4q21 0 40 5.5t33.5 14.5t23.5 21t9 26zM439 470h-98v98h98v-98zM591 470h-98v98 h98v-98zM514 618h-97v98h97v-98z" />
<glyph unicode="&#x634;" horiz-adv-x="984" arabic-form="medial" d="M984 47h-52q-35 0 -69.5 15t-57.5 48q-21 -27 -51 -45t-68 -18q-35 0 -70 14t-58 47q-20 -27 -50 -44t-69 -17q-35 0 -69.5 12.5t-57.5 45.5q-23 -26 -57.5 -42t-73.5 -16h-181q-18 0 -34 6v88h215q22 0 40 8.5t31.5 20.5t21 25t7.5 23v74h75v-78q0 -21 7.5 -35 t19.5 -22.5t26.5 -12t29.5 -3.5q21 0 37.5 9t28 21.5t17 26t5.5 23.5v71h76v-76q0 -21 7.5 -35.5t19.5 -23t26.5 -12.5t29.5 -4q21 0 37.5 9.5t27.5 22.5t17 27t6 23v69h75v-73q0 -21 7.5 -36t19.5 -24.5t26.5 -13.5t29.5 -4h52v-94zM439 470h-98v98h98v-98zM591 470h-98v98 h98v-98zM514 618h-97v98h97v-98z" />
<glyph unicode="&#x635;" horiz-adv-x="1334" arabic-form="isolated" d="M927 141q70 0 121 11t84.5 28.5t49.5 40t16 45.5q0 10 -5.5 24.5t-16 27t-26 21.5t-34.5 9q-33 0 -68 -18.5t-69.5 -48t-67 -66.5t-61.5 -74h77zM768 47q-24 0 -45.5 2t-37.5 10v-6q0 -68 -36.5 -113.5t-95 -73.5t-130.5 -40t-144 -12q-55 0 -96.5 14t-69.5 38.5 t-42 58.5t-14 75q0 34 8 68t20.5 65.5t26.5 58.5t26 48l61 -29q-10 -18 -21 -40t-20.5 -48.5t-16 -57t-6.5 -65.5q0 -42 34.5 -67t109.5 -25q58 0 117 7.5t106 24.5t76.5 44.5t29.5 68.5q0 50 -22 94t-46 82l65 47l32 -49q10 -15 21.5 -30t25 -27t29.5 -19.5t35 -8.5l79 101 t90.5 97t97.5 72.5t101 28.5q36 0 65.5 -18.5t50 -45.5t31.5 -57t11 -54q0 -41 -21 -80t-63.5 -70t-108 -50t-154.5 -19h-159z" />
<glyph unicode="&#x635;" horiz-adv-x="1367" arabic-form="final" d="M928 141q70 0 121 11t84.5 28.5t49.5 40t16 45.5q0 10 -5.5 24.5t-16 27t-26 21.5t-34.5 9q-33 0 -68 -18.5t-69.5 -48t-67 -66.5t-61.5 -74h77zM1367 47q-45 0 -76 1.5t-56.5 5.5t-49 11t-54.5 18q-39 -15 -90.5 -25.5t-112.5 -10.5h-159q-24 0 -46 2t-38 10v-6 q0 -68 -36.5 -113.5t-95 -73.5t-130.5 -40t-144 -12q-55 0 -96.5 14t-69.5 38.5t-42 58.5t-14 75q0 34 8 68t20.5 65.5t26.5 58.5t26 48l61 -29q-10 -18 -21 -40t-20.5 -48.5t-16 -57t-6.5 -65.5q0 -42 34.5 -67t109.5 -25q58 0 117 7.5t106 24.5t76.5 44.5t29.5 68.5 q0 50 -22 94t-46 82l65 47l32 -49q10 -15 21.5 -30t25.5 -27t30 -19.5t35 -8.5q36 48 79.5 100.5t91.5 97t98 73t99 28.5q36 0 65.5 -18.5t50 -45.5t31.5 -57t11 -54q0 -60 -47 -116q20 -6 54 -7.5t85 -1.5v-94z" />
<glyph unicode="&#x635;" horiz-adv-x="896" arabic-form="initial" d="M327 44q-36 0 -69.5 14.5t-58.5 46.5q-20 -27 -56 -42.5t-74 -15.5h-69q-18 0 -34 6v88h103q21 0 39.5 8.5t31.5 20.5t20.5 25t7.5 23v74h76v-78q0 -20 6 -34t16 -23t22 -13.5t23 -4.5q35 48 78.5 100.5t91.5 96.5t98.5 73t99.5 29q36 0 65 -18.5t50 -45.5t32 -57t11 -54 q0 -40 -21 -79t-64 -70t-108.5 -50.5t-154.5 -19.5h-162zM489 138q70 0 121.5 11t84.5 28.5t49 40t16 45.5q0 10 -5.5 24.5t-16 27t-25.5 21.5t-34 9q-33 0 -68 -18.5t-69.5 -47.5t-67.5 -66.5t-62 -74.5h77z" />
<glyph unicode="&#x635;" horiz-adv-x="929" arabic-form="medial" d="M929 47q-44 0 -75.5 1t-58 4t-51 10t-54.5 19q-39 -16 -90.5 -26.5t-112.5 -10.5h-163q-35 0 -69.5 14t-57.5 47q-21 -27 -56.5 -42.5t-74.5 -15.5h-66q-18 0 -34 6v88h100q22 0 40.5 8.5t31.5 20.5t20.5 25t7.5 23v74h75v-78q0 -20 6.5 -34t16.5 -23t21.5 -13.5 t22.5 -4.5l80.5 99.5t91 97t97 73.5t99.5 29q36 0 65.5 -18.5t50 -45.5t31.5 -57t11 -54q0 -60 -47 -116q22 -4 56 -5.5t86 -0.5v-94zM487 138q70 0 121 11t84.5 28.5t49.5 40t16 45.5q0 10 -5.5 24.5t-16 27t-26 21.5t-34.5 9q-33 0 -68 -18.5t-69 -47.5t-67 -66.5 t-62 -74.5h77z" />
<glyph unicode="&#x636;" horiz-adv-x="1334" arabic-form="isolated" d="M927 141q70 0 121 11t84.5 28.5t49.5 40t16 45.5q0 10 -5.5 24.5t-16 27t-26 21.5t-34.5 9q-33 0 -68 -18.5t-69.5 -48t-67 -66.5t-61.5 -74h77zM768 47q-24 0 -45.5 2t-37.5 10v-6q0 -68 -36.5 -113.5t-95 -73.5t-130.5 -40t-144 -12q-55 0 -96.5 14t-69.5 38.5 t-42 58.5t-14 75q0 34 8 68t20.5 65.5t26.5 58.5t26 48l61 -29q-10 -18 -21 -40t-20.5 -48.5t-16 -57t-6.5 -65.5q0 -42 34.5 -67t109.5 -25q58 0 117 7.5t106 24.5t76.5 44.5t29.5 68.5q0 50 -22 94t-46 82l65 47l32 -49q10 -15 21.5 -30t25 -27t29.5 -19.5t35 -8.5l79 101 t90.5 97t97.5 72.5t101 28.5q36 0 65.5 -18.5t50 -45.5t31.5 -57t11 -54q0 -41 -21 -80t-63.5 -70t-108 -50t-154.5 -19h-159zM1009 560h-98v98h98v-98z" />
<glyph unicode="&#x636;" horiz-adv-x="1367" arabic-form="final" d="M928 141q70 0 121 11t84.5 28.5t49.5 40t16 45.5q0 10 -5.5 24.5t-16 27t-26 21.5t-34.5 9q-33 0 -68 -18.5t-69.5 -48t-67 -66.5t-61.5 -74h77zM1367 47q-45 0 -76 1.5t-56.5 5.5t-49 11t-54.5 18q-39 -15 -90.5 -25.5t-112.5 -10.5h-159q-24 0 -46 2t-38 10v-6 q0 -68 -36.5 -113.5t-95 -73.5t-130.5 -40t-144 -12q-55 0 -96.5 14t-69.5 38.5t-42 58.5t-14 75q0 34 8 68t20.5 65.5t26.5 58.5t26 48l61 -29q-10 -18 -21 -40t-20.5 -48.5t-16 -57t-6.5 -65.5q0 -42 34.5 -67t109.5 -25q58 0 117 7.5t106 24.5t76.5 44.5t29.5 68.5 q0 50 -22 94t-46 82l65 47l32 -49q10 -15 21.5 -30t25.5 -27t30 -19.5t35 -8.5q36 48 79.5 100.5t91.5 97t98 73t99 28.5q36 0 65.5 -18.5t50 -45.5t31.5 -57t11 -54q0 -60 -47 -116q20 -6 54 -7.5t85 -1.5v-94zM1009 560h-98v98h98v-98z" />
<glyph unicode="&#x636;" horiz-adv-x="896" arabic-form="initial" d="M327 44q-36 0 -69.5 14.5t-58.5 46.5q-20 -27 -56 -42.5t-74 -15.5h-69q-18 0 -34 6v88h103q21 0 39.5 8.5t31.5 20.5t20.5 25t7.5 23v74h76v-78q0 -20 6 -34t16 -23t22 -13.5t23 -4.5q35 48 78.5 100.5t91.5 96.5t98.5 73t99.5 29q36 0 65 -18.5t50 -45.5t32 -57t11 -54 q0 -40 -21 -79t-64 -70t-108.5 -50.5t-154.5 -19.5h-162zM489 138q70 0 121.5 11t84.5 28.5t49 40t16 45.5q0 10 -5.5 24.5t-16 27t-25.5 21.5t-34 9q-33 0 -68 -18.5t-69.5 -47.5t-67.5 -66.5t-62 -74.5h77zM567 563h-98v98h98v-98z" />
<glyph unicode="&#x636;" horiz-adv-x="929" arabic-form="medial" d="M567 563h-98v98h98v-98zM929 47q-44 0 -75.5 1t-58 4t-51 10t-54.5 19q-39 -16 -90.5 -26.5t-112.5 -10.5h-163q-35 0 -69.5 14t-57.5 47q-21 -27 -56.5 -42.5t-74.5 -15.5h-66q-18 0 -34 6v88h100q22 0 40.5 8.5t31.5 20.5t20.5 25t7.5 23v74h75v-78q0 -20 6.5 -34 t16.5 -23t21.5 -13.5t22.5 -4.5l80.5 99.5t91 97t97 73.5t99.5 29q36 0 65.5 -18.5t50 -45.5t31.5 -57t11 -54q0 -60 -47 -116q22 -4 56 -5.5t86 -0.5v-94zM487 138q70 0 121 11t84.5 28.5t49.5 40t16 45.5q0 10 -5.5 24.5t-16 27t-26 21.5t-34.5 9q-33 0 -68 -18.5 t-69 -47.5t-67 -66.5t-62 -74.5h77zM929 47q-44 0 -75.5 1t-58 4t-51 10t-54.5 19q-39 -16 -90.5 -26.5t-112.5 -10.5h-163q-35 0 -69.5 14t-57.5 47q-21 -27 -56.5 -42.5t-74.5 -15.5h-66q-18 0 -34 6v88h100q22 0 40.5 8.5t31.5 20.5t20.5 25t7.5 23v74h75v-78 q0 -20 6.5 -34t16.5 -23t21.5 -13.5t22.5 -4.5l80.5 99.5t91 97t97 73.5t99.5 29q36 0 65.5 -18.5t50 -45.5t31.5 -57t11 -54q0 -60 -47 -116q22 -4 56 -5.5t86 -0.5v-94zM487 138q70 0 121 11t84.5 28.5t49.5 40t16 45.5q0 10 -5.5 24.5t-16 27t-26 21.5t-34.5 9 q-33 0 -68 -18.5t-69 -47.5t-67 -66.5t-62 -74.5h77z" />
<glyph unicode="&#x637;" horiz-adv-x="781" arabic-form="isolated" d="M248 250q33 37 70.5 71t78 60t82.5 41.5t84 15.5q36 0 65.5 -18.5t50 -45.5t32 -57t11.5 -54q0 -40 -21.5 -79t-66 -70t-112.5 -50.5t-160 -19.5q-32 0 -69.5 0.5t-75 3.5t-74 9t-66.5 17l26 89q12 -5 26.5 -9t28.5 -6l7.5 9l7.5 9v594h75v-510zM259 139q29 -1 57.5 -1 h53.5q70 0 121.5 11t85.5 28.5t51 40t17 45.5q0 10 -5.5 24.5t-16 27t-26 21.5t-34.5 9q-41 0 -81 -18.5t-78.5 -47.5t-75 -66t-69.5 -74z" />
<glyph unicode="&#x637;" horiz-adv-x="815" arabic-form="final" d="M258 139q29 -1 57 -1h54q70 0 121.5 11t85.5 28.5t51 40t17 45.5q0 10 -6 24.5t-16.5 27t-25.5 21.5t-34 9q-41 0 -81 -18t-78.5 -47t-75 -66t-69.5 -75zM156 148l7.5 9l7.5 9v594h76v-510q33 37 70.5 71.5t77.5 60t82 41t85 15.5q36 0 65.5 -18.5t50 -45.5t31.5 -57 t11 -54q0 -61 -50 -117q22 -4 57.5 -4.5t87.5 -0.5v-94q-44 0 -76 1t-59.5 4t-52.5 10t-54 19q-39 -16 -92.5 -26.5t-120.5 -10.5q-32 0 -69 0.5t-74.5 3.5t-74 9t-67.5 17l25 89q13 -5 28 -9t28 -6z" />
<glyph unicode="&#x637;" horiz-adv-x="716" arabic-form="initial" d="M305 141q70 0 122 10.5t86 27.5t50.5 39t16.5 45q0 10 -6 24.5t-16.5 27t-25.5 21.5t-33 9q-39 0 -79.5 -18t-79.5 -47.5t-76 -66t-69 -72.5h110zM108 760h75v-510q34 37 71.5 71t77.5 60t82 41.5t85 15.5q36 0 65 -18.5t49.5 -45.5t32 -57t11.5 -54q0 -40 -21.5 -78.5 t-65 -69t-110 -49.5t-155.5 -19h-305q-18 0 -34 6v88h121q5 6 10.5 12t10.5 13v594z" />
<glyph unicode="&#x637;" horiz-adv-x="751" arabic-form="medial" d="M306 141q70 0 121.5 10.5t85.5 27.5t51 39t17 45q0 10 -6 24.5t-16.5 27t-25.5 21.5t-33 9q-39 0 -79.5 -18t-79.5 -47.5t-76 -66t-69 -72.5h110zM109 760h75v-510q34 37 71.5 71t77.5 60t82 41.5t85 15.5q36 0 65 -18.5t49.5 -45.5t32 -57t11.5 -54q0 -65 -52 -117 q23 -4 58.5 -4.5t86.5 -0.5v-94q-43 0 -75.5 1t-60.5 5t-53.5 10.5t-54.5 17.5q-38 -14 -90.5 -24t-110.5 -10h-306q-18 0 -34 6v88h122q5 6 10.5 12t10.5 13v594z" />
<glyph unicode="&#x638;" horiz-adv-x="781" arabic-form="isolated" d="M248 250q33 37 70.5 71t78 60t82.5 41.5t84 15.5q36 0 65.5 -18.5t50 -45.5t32 -57t11.5 -54q0 -40 -21.5 -79t-66 -70t-112.5 -50.5t-160 -19.5q-32 0 -69.5 0.5t-75 3.5t-74 9t-66.5 17l26 89q12 -5 26.5 -9t28.5 -6l7.5 9l7.5 9v594h75v-510zM259 139q29 -1 57.5 -1 h53.5q70 0 121.5 11t85.5 28.5t51 40t17 45.5q0 10 -5.5 24.5t-16 27t-26 21.5t-34.5 9q-41 0 -81 -18.5t-78.5 -47.5t-75 -66t-69.5 -74zM483 563h-98v98h98v-98z" />
<glyph unicode="&#x638;" horiz-adv-x="815" arabic-form="final" d="M258 139q29 -1 57 -1h54q70 0 121.5 11t85.5 28.5t51 40t17 45.5q0 10 -6 24.5t-16.5 27t-25.5 21.5t-34 9q-41 0 -81 -18t-78.5 -47t-75 -66t-69.5 -75zM156 148l7.5 9l7.5 9v594h76v-510q33 37 70.5 71.5t77.5 60t82 41t85 15.5q36 0 65.5 -18.5t50 -45.5t31.5 -57 t11 -54q0 -61 -50 -117q22 -4 57.5 -4.5t87.5 -0.5v-94q-44 0 -76 1t-59.5 4t-52.5 10t-54 19q-39 -16 -92.5 -26.5t-120.5 -10.5q-32 0 -69 0.5t-74.5 3.5t-74 9t-67.5 17l25 89q13 -5 28 -9t28 -6zM483 563h-98v98h98v-98z" />
<glyph unicode="&#x638;" horiz-adv-x="716" arabic-form="initial" d="M305 141q70 0 122 10.5t86 27.5t50.5 39t16.5 45q0 10 -6 24.5t-16.5 27t-25.5 21.5t-33 9q-39 0 -79.5 -18t-79.5 -47.5t-76 -66t-69 -72.5h110zM108 760h75v-510q34 37 71.5 71t77.5 60t82 41.5t85 15.5q36 0 65 -18.5t49.5 -45.5t32 -57t11.5 -54q0 -40 -21.5 -78.5 t-65 -69t-110 -49.5t-155.5 -19h-305q-18 0 -34 6v88h121q5 6 10.5 12t10.5 13v594zM422 568h-98v98h98v-98z" />
<glyph unicode="&#x638;" horiz-adv-x="751" arabic-form="medial" d="M306 141q70 0 121.5 10.5t85.5 27.5t51 39t17 45q0 10 -6 24.5t-16.5 27t-25.5 21.5t-33 9q-39 0 -79.5 -18t-79.5 -47.5t-76 -66t-69 -72.5h110zM109 760h75v-510q34 37 71.5 71t77.5 60t82 41.5t85 15.5q36 0 65 -18.5t49.5 -45.5t32 -57t11.5 -54q0 -65 -52 -117 q23 -4 58.5 -4.5t86.5 -0.5v-94q-43 0 -75.5 1t-60.5 5t-53.5 10.5t-54.5 17.5q-38 -14 -90.5 -24t-110.5 -10h-306q-18 0 -34 6v88h122q5 6 10.5 12t10.5 13v594zM422 563h-98v98h98v-98z" />
<glyph unicode="&#x639;" horiz-adv-x="613" arabic-form="isolated" d="M541 -181q-26 -9 -63 -17t-86 -8q-30 0 -66 4.5t-73 15t-72 28t-62 43t-43.5 60t-16.5 79.5t12.5 84t34 72.5t49.5 61t58 49.5q-42 29 -64.5 69t-22.5 98q0 30 16.5 58.5t41.5 50t53 34.5t52 13q33 0 69.5 -7.5t78.5 -24.5l-25 -73q-23 8 -57.5 11t-65.5 3 q-13 0 -28 -5.5t-28 -14.5t-21.5 -21t-8.5 -24q0 -40 27 -67.5t78 -48.5q26 12 52.5 21.5t52 17.5l48 14.5t40.5 12.5l19 -86l-67.5 -20t-82 -29t-84.5 -40t-75 -53.5t-53.5 -69t-20.5 -86.5q0 -41 27 -67t66.5 -41.5t83.5 -21.5t78 -6q45 0 78.5 1t56.5 3z" />
<glyph unicode="&#x639;" horiz-adv-x="613" arabic-form="final" d="M544 -179q-33 -6 -76.5 -11t-97.5 -5q-26 0 -57.5 4.5t-64.5 14.5t-64.5 27t-55.5 41.5t-39 57.5t-15 76q0 60 25.5 109.5t65 89t86.5 68.5t89 47q-11 22 -29.5 32t-49.5 10l-3 72q33 13 66.5 23.5t69.5 10.5q25 0 47 -6t38.5 -17t26 -27t9.5 -36q0 -29 -19.5 -62.5 t-57.5 -57.5q15 -48 33 -76t40 -42.5t47.5 -18.5t54.5 -4v-94q-42 0 -78 4.5t-66.5 25t-56 61.5t-46.5 114q-35 -13 -73 -35t-69.5 -51.5t-51.5 -64.5t-20 -75q0 -37 23.5 -61.5t57.5 -39t71.5 -20.5t65.5 -6h95t72 2z" />
<glyph unicode="&#x639;" horiz-adv-x="562" arabic-form="initial" d="M516 161l-116 -41.5t-115 -36.5t-118 -26t-124 -10h-43q-18 0 -34 6v88h77q34 0 65 2.5t59 7.5q-27 22 -44 46t-26 48t-12 46t-3 41q0 28 14.5 56.5t40 50.5t59.5 36t73 14q46 0 87.5 -7t77.5 -18l-20 -91q-32 9 -68.5 16t-76.5 7q-23 0 -43 -6t-35 -15t-24 -20.5 t-9 -22.5q0 -14 5.5 -33.5t20.5 -40t41 -40t67 -34.5q56 16 102 32.5l100 34.5z" />
<glyph unicode="&#x639;" horiz-adv-x="437" arabic-form="medial" d="M438 47q-36 0 -65.5 3t-54.5 12t-46.5 24.5t-41.5 40.5q-42 -42 -95 -61t-101 -19h-34q-18 0 -34 6v88h68q39 0 81 15t72 45q-20 32 -44 52t-62 20l-3 69q35 14 75 26t77 12q51 0 84 -22t33 -64q0 -33 -16.5 -55.5t-43.5 -50.5q24 -32 60.5 -39.5t90.5 -7.5v-94z" />
<glyph unicode="&#x63a;" horiz-adv-x="613" arabic-form="isolated" d="M541 -181q-26 -9 -63 -17t-86 -8q-30 0 -66 4.5t-73 15t-72 28t-62 43t-43.5 60t-16.5 79.5t12.5 84t34 72.5t49.5 61t58 49.5q-42 29 -64.5 69t-22.5 98q0 30 16.5 58.5t41.5 50t53 34.5t52 13q33 0 69.5 -7.5t78.5 -24.5l-25 -73q-23 8 -57.5 11t-65.5 3 q-13 0 -28 -5.5t-28 -14.5t-21.5 -21t-8.5 -24q0 -40 27 -67.5t78 -48.5q26 12 52.5 21.5t52 17.5l48 14.5t40.5 12.5l19 -86l-67.5 -20t-82 -29t-84.5 -40t-75 -53.5t-53.5 -69t-20.5 -86.5q0 -41 27 -67t66.5 -41.5t83.5 -21.5t78 -6q45 0 78.5 1t56.5 3zM352 711h-98v98 h98v-98z" />
<glyph unicode="&#x63a;" horiz-adv-x="613" arabic-form="final" d="M544 -179q-33 -6 -76.5 -11t-97.5 -5q-26 0 -57.5 4.5t-64.5 14.5t-64.5 27t-55.5 41.5t-39 57.5t-15 76q0 60 25.5 109.5t65 89t86.5 68.5t89 47q-11 22 -29.5 32t-49.5 10l-3 72q33 13 66.5 23.5t69.5 10.5q25 0 47 -6t38.5 -17t26 -27t9.5 -36q0 -29 -19.5 -62.5 t-57.5 -57.5q15 -48 33 -76t40 -42.5t47.5 -18.5t54.5 -4v-94q-42 0 -78 4.5t-66.5 25t-56 61.5t-46.5 114q-35 -13 -73 -35t-69.5 -51.5t-51.5 -64.5t-20 -75q0 -37 23.5 -61.5t57.5 -39t71.5 -20.5t65.5 -6h95t72 2zM426 608h-98v98h98v-98z" />
<glyph unicode="&#x63a;" horiz-adv-x="562" arabic-form="initial" d="M516 161l-116 -41.5t-115 -36.5t-118 -26t-124 -10h-43q-18 0 -34 6v88h77q34 0 65 2.5t59 7.5q-27 22 -44 46t-26 48t-12 46t-3 41q0 28 14.5 56.5t40 50.5t59.5 36t73 14q46 0 87.5 -7t77.5 -18l-20 -91q-32 9 -68.5 16t-76.5 7q-23 0 -43 -6t-35 -15t-24 -20.5 t-9 -22.5q0 -14 5.5 -33.5t20.5 -40t41 -40t67 -34.5q56 16 102 32.5l100 34.5zM319 608h-98v98h98v-98z" />
<glyph unicode="&#x63a;" horiz-adv-x="437" arabic-form="medial" d="M438 47q-36 0 -65.5 3t-54.5 12t-46.5 24.5t-41.5 40.5q-42 -42 -95 -61t-101 -19h-34q-18 0 -34 6v88h68q39 0 81 15t72 45q-20 32 -44 52t-62 20l-3 69q35 14 75 26t77 12q51 0 84 -22t33 -64q0 -33 -16.5 -55.5t-43.5 -50.5q24 -32 60.5 -39.5t90.5 -7.5v-94zM268 525 h-98v98h98v-98z" />
<glyph unicode="&#x641;" horiz-adv-x="1030" arabic-form="isolated" d="M898 347q-5 31 -17.5 53t-28 36.5t-31.5 21t-29 6.5q-11 0 -20.5 -10.5t-16 -26.5t-10.5 -35.5t-4 -36.5q0 -8 9.5 -12t22.5 -6t27.5 -2.5t25.5 -0.5q45 0 72 13zM74 235q-1 21 1 47t6.5 53t10 53.5t11.5 49.5l81 -10l-10.5 -47.5t-10 -50t-6 -47t0.5 -38.5 q10 -64 72.5 -89t173.5 -25q96 0 171 2t130.5 6t94.5 10.5t63 15.5q11 4 21 26.5t14 58.5q-30 -10 -72 -10q-20 0 -47.5 2.5t-52.5 14t-42.5 34.5t-17.5 64q0 31 9.5 66.5t26 66t39.5 50.5t51 20q24 0 56 -14t60.5 -43.5t48 -76t19.5 -110.5q0 -62 -6 -103t-16.5 -67 t-26 -39t-33.5 -20l-38 -14t-39 -10.5t-52.5 -7.5t-77 -4.5t-113 -2.5t-160.5 -1q-90 0 -153 8.5t-103.5 30t-60.5 58t-23 93.5zM853 650h-98v98h98v-98z" />
<glyph unicode="&#x641;" horiz-adv-x="1030" arabic-form="final" d="M808 198q37 22 58.5 45.5t21.5 43.5q0 29 -14.5 52t-32.5 23q-13 0 -28.5 -7.5t-29 -20t-22.5 -28.5t-9 -32q0 -21 13.5 -38.5t42.5 -37.5zM66 225q0 21 4 46.5t10.5 52t14.5 52.5t16 49l75 -17q-7 -21 -14.5 -46.5t-14 -50.5t-10.5 -47.5t-4 -38.5q0 -27 20.5 -46.5 t55.5 -32t83 -18.5t103 -6q100 0 179.5 11.5t133.5 27.5q-21 23 -31.5 50t-10.5 63q0 33 17 65.5t42 58.5t53.5 42t52.5 16q22 0 44 -14t39.5 -37.5t28.5 -54t11 -63.5q0 -67 -68 -130q34 -9 69.5 -12.5t64.5 -3.5v-94q-23 0 -51 2.5t-58 8t-60 15t-56 23.5 q-39 -17 -87.5 -29.5t-102 -21t-107.5 -10t-103 -1.5q-71 0 -133 8.5t-107.5 32.5t-72 61t-26.5 89zM876 608h-98v98h98v-98z" />
<glyph unicode="&#x641;" horiz-adv-x="437" arabic-form="initial" d="M0 47q-18 0 -34 6v88h66q45 0 78 1.5t60 5t50 9.5t48 16q11 5 19.5 21t12.5 52q-30 -10 -72 -10q-19 0 -46.5 2.5t-53 14t-43.5 34.5t-18 64q0 31 9.5 67t26.5 66t40.5 50t50.5 20q25 0 56.5 -14t60 -43.5t48 -76t19.5 -110.5q0 -63 -6 -103.5t-17 -65t-26.5 -37 t-34.5 -19.5q-30 -11 -56.5 -18.5t-56 -12t-65 -6t-84.5 -1.5h-32zM301 343q-6 31 -18.5 53t-27.5 36t-31.5 21t-29.5 7q-11 0 -20 -10.5t-16 -26.5t-11 -35.5t-4 -36.5q0 -8 9.5 -12t22.5 -6t27.5 -2.5t25.5 -0.5q46 0 73 13zM258 650h-98v98h98v-98z" />
<glyph unicode="&#x641;" horiz-adv-x="437" arabic-form="medial" d="M438 47q-23 0 -51 2.5t-58.5 8t-60.5 14t-57 21.5q-42 -21 -90 -33.5t-97 -12.5h-24q-18 0 -34 6v88h58q25 0 51 3.5t50 9.5q-23 25 -35 53.5t-12 66.5q0 32 17 64.5t41.5 58.5t53.5 42.5t53 16.5q22 0 44 -14t39.5 -37.5t28.5 -54t11 -64.5t-17.5 -66.5t-48.5 -62.5 q35 -10 71.5 -13t66.5 -3v-94zM217 193q31 20 52 44t21 49q0 15 -4 28.5t-11 24t-15 17t-17 6.5q-13 0 -28.5 -8t-29 -20.5t-22.5 -28t-9 -31.5q0 -23 15.5 -41.5t47.5 -39.5zM272 613h-98v98h98v-98z" />
<glyph unicode="&#x642;" horiz-adv-x="769" arabic-form="isolated" d="M622 215q-15 55 -42 86.5t-63 31.5q-11 0 -20.5 -11t-16.5 -27.5t-11 -36t-4 -35.5q0 -8 9.5 -12t23 -6t28 -2.5t24.5 -0.5q21 0 38 3t34 10zM709 53q0 -68 -40.5 -113.5t-103 -73.5t-138.5 -40t-148 -12q-55 0 -96.5 14t-69.5 38.5t-42 58.5t-14 75q0 34 8 68t20.5 65.5 t26.5 58.5t26 48l61 -29q-10 -18 -21 -40t-20.5 -48.5t-16 -57t-6.5 -65.5q0 -42 34.5 -67t109.5 -25q58 0 121 7.5t115 24.5t85.5 44.5t33.5 68.5v68q-36 -13 -84 -13q-20 0 -47 2.5t-52.5 14t-43 34.5t-17.5 64q0 31 9.5 67t26 66t40 50t51.5 20q42 0 77 -23t60.5 -64.5 t40 -99.5t14.5 -127v-59zM502 527h-98v98h98v-98zM646 527h-98v98h98v-98z" />
<glyph unicode="&#x642;" horiz-adv-x="807" arabic-form="final" d="M807 47h-35h-29t-31 2q-1 -44 -20.5 -78.5t-51.5 -61t-74.5 -44.5t-90.5 -29.5t-98.5 -16.5t-97.5 -5q-55 0 -96.5 14t-69.5 38.5t-42 58.5t-14 75q0 34 8 68t20.5 65.5t26.5 58.5t26 48l61 -29q-10 -18 -21 -40t-20.5 -48.5t-16 -57t-6.5 -65.5q0 -42 34.5 -67 t109.5 -25q58 0 121.5 7t116 24.5t86.5 45.5t34 70q-41 5 -81 14.5t-71.5 26t-50.5 40.5t-19 59q0 31 9.5 67t26 66t40 50t51.5 20q162 0 169 -256q27 -2 51.5 -1t44.5 0v-94zM636 146q-4 78 -27.5 118.5t-66.5 40.5q-11 0 -20.5 -11t-16.5 -27.5t-11 -36t-4 -35.5 q0 -11 12 -19t32.5 -14t46.5 -10t55 -6zM502 527h-98v98h98v-98zM646 527h-98v98h98v-98z" />
<glyph unicode="&#x642;" horiz-adv-x="437" arabic-form="initial" d="M0 47q-18 0 -34 6v88h66q45 0 78 1.5t60 5t50 9.5t48 16q11 5 19.5 21t12.5 52q-30 -10 -72 -10q-19 0 -46.5 2.5t-53 14t-43.5 34.5t-18 64q0 31 9.5 67t26.5 66t40.5 50t50.5 20q25 0 56.5 -14t60 -43.5t48 -76t19.5 -110.5q0 -63 -6 -103.5t-17 -65t-26.5 -37 t-34.5 -19.5q-30 -11 -56.5 -18.5t-56 -12t-65 -6t-84.5 -1.5h-32zM301 343q-6 31 -18.5 53t-27.5 36t-31.5 21t-29.5 7q-11 0 -20 -10.5t-16 -26.5t-11 -35.5t-4 -36.5q0 -8 9.5 -12t22.5 -6t27.5 -2.5t25.5 -0.5q46 0 73 13zM186 647h-98v98h98v-98zM330 647h-98v98h98 v-98z" />
<glyph unicode="&#x642;" horiz-adv-x="437" arabic-form="medial" d="M438 47q-23 0 -51 2.5t-58.5 8t-60.5 14t-57 21.5q-42 -21 -90 -33.5t-97 -12.5h-24q-18 0 -34 6v88h58q25 0 51 3.5t50 9.5q-23 25 -35 53.5t-12 66.5q0 32 17 64.5t41.5 58.5t53.5 42.5t53 16.5q22 0 44 -14t39.5 -37.5t28.5 -54t11 -64.5t-17.5 -66.5t-48.5 -62.5 q35 -10 71.5 -13t66.5 -3v-94zM217 193q31 20 52 44t21 49q0 15 -4 28.5t-11 24t-15 17t-17 6.5q-13 0 -28.5 -8t-29 -20.5t-22.5 -28t-9 -31.5q0 -23 15.5 -41.5t47.5 -39.5zM200 610h-98v98h98v-98zM344 610h-98v98h98v-98z" />
<glyph unicode="&#x643;" horiz-adv-x="781" arabic-form="isolated" d="M453 542q-23 0 -42.5 -4.5t-34 -11t-22.5 -15t-8 -15.5t16 -14t34.5 -17.5t34.5 -27t16 -41.5q0 -26 -23.5 -45.5t-54.5 -32t-63 -19t-48 -6.5v64q12 0 35 2.5t45.5 7t39.5 12t17 17.5q0 4 -16 10t-34.5 16.5t-34.5 28t-16 45.5q0 16 12 35.5t33.5 36t50.5 27.5t63 11 v-64zM616 760h75v-514q0 -53 -9.5 -88t-25.5 -56t-36 -31t-42 -14q-72 -14 -146 -18.5t-140 -4.5q-69 0 -128.5 10.5t-104.5 32.5l29 82q37 -16 89 -24t115 -8q57 0 123.5 2.5t126.5 10.5q32 4 53 27t21 79v514z" />
<glyph unicode="&#x643;" horiz-adv-x="823" arabic-form="final" d="M453 542q-23 0 -42.5 -4.5t-34 -11t-22.5 -15t-8 -15.5t16 -14t34.5 -17.5t34.5 -27t16 -41.5q0 -26 -23.5 -45.5t-54.5 -32t-63 -19t-48 -6.5v64q12 0 35 2.5t45.5 7t39.5 12t17 17.5q0 4 -16 10t-34.5 16.5t-34.5 28t-16 45.5q0 16 12 35.5t33.5 36t50.5 27.5t63 11 v-64zM606 760h76v-480q0 -35 4.5 -61t19.5 -43.5t42.5 -26t74.5 -8.5v-94q-36 0 -63.5 4.5t-48 12.5t-35 19.5t-26.5 26.5h2q-16 -24 -37.5 -36.5t-44.5 -16.5q-70 -13 -141 -18t-137 -5q-69 0 -128.5 10.5t-104.5 32.5l29 82q37 -16 89 -24t115 -8q58 0 120 2.5t122 10.5 q33 4 52.5 27t19.5 79v514z" />
<glyph unicode="&#x643;" horiz-adv-x="498" arabic-form="initial" d="M0 47q-18 0 -34 6v88h68q40 0 79.5 5t70.5 15.5t50.5 27t19.5 39.5q0 33 -17.5 61.5t-47.5 54.5t-70.5 50.5l-86.5 50.5l12 125l103 67.5t105.5 62.5t102.5 53.5t94 40.5l24 -89q-41 -15 -87 -37t-93.5 -48t-95 -55.5l-91.5 -59.5q45 -26 85.5 -55t71.5 -62.5t49.5 -73 t18.5 -86.5t-26 -81t-68.5 -56.5t-95.5 -33t-107 -10.5h-34z" />
<glyph unicode="&#x643;" horiz-adv-x="562" arabic-form="medial" d="M562 47q-54 0 -89 18t-60 46t-43.5 60t-39.5 61q0 -48 -26 -83t-68 -57.5t-95 -33.5t-107 -11h-34q-18 0 -34 6v88h68q40 0 79.5 5t70.5 15.5t50.5 27t19.5 39.5q0 33 -17.5 61.5t-47.5 54.5t-70.5 50.5l-86.5 50.5l12 125l103 67.5t105.5 62.5t102.5 53.5t94 40.5 l24 -89q-41 -15 -87 -37t-93.5 -48.5l-95 -55.5l-92.5 -59q39 -23 86 -54t93 -67.5t85.5 -77.5t62.5 -83q9 -16 19.5 -30.5t26 -26t36 -18.5t48.5 -7v-94z" />
<glyph unicode="&#x644;" horiz-adv-x="773" arabic-form="isolated" d="M609 760h76v-707q0 -68 -36.5 -113.5t-95 -73.5t-130.5 -40t-144 -12q-55 0 -96.5 14t-69.5 38.5t-42 58.5t-14 75q0 34 8 68t20.5 65.5t26.5 58.5t26 48l61 -29q-10 -18 -21 -40t-20.5 -48.5t-16 -57t-6.5 -65.5q0 -42 34.5 -67t109.5 -25q59 0 118 7.5t106 24.5 t76.5 44.5t29.5 68.5v707z" />
<glyph unicode="&#x644;" horiz-adv-x="823" arabic-form="final" d="M823 47q-46 0 -80 7t-58 19v-20q0 -68 -36.5 -113.5t-95 -73.5t-130.5 -40t-144 -12q-55 0 -96.5 14t-69.5 38.5t-42 58.5t-14 75q0 34 8 68t20.5 65.5t26.5 58.5t26 48l61 -29q-10 -18 -21 -40t-20.5 -48.5t-16 -57t-6.5 -65.5q0 -42 34.5 -67t109.5 -25q59 0 118 7.5 t106 24.5t76.5 44.5t29.5 68.5v707h76v-537q0 -20 6 -35t22 -25.5t42.5 -16t67.5 -5.5v-94z" />
<glyph unicode="&#x644;" horiz-adv-x="318" arabic-form="initial" d="M150 760h75v-514q0 -64 -13 -103t-36.5 -60.5t-56.5 -28.5t-72 -7h-47q-18 0 -34 6v88h81q23 0 42 3.5t32.5 15t21 32t7.5 54.5v514z" />
<glyph unicode="&#x644;" horiz-adv-x="344" arabic-form="medial" d="M344 47q-69 0 -112.5 14.5t-67.5 42.5q-23 -35 -60.5 -46t-85.5 -11h-18q-18 0 -34 6v88h52q22 0 41 3.5t32.5 15t21 32t7.5 54.5v514h75v-492q0 -30 6 -54t22.5 -40t45.5 -24.5t75 -8.5v-94z" />
<glyph unicode="&#x645;" horiz-adv-x="629" arabic-form="isolated" d="M114 -245l-19.5 152t-17 142t-12 118t-4.5 79q0 33 17 54t44 33.5t61.5 19t69.5 11.5q-6 25 -6 55q0 34 9.5 64.5t26 53.5t38.5 36t47 13q40 0 75.5 -20t61.5 -51.5t41.5 -70t15.5 -75.5q0 -23 -1.5 -38t-5 -25t-10.5 -15.5t-18 -10.5q-12 -5 -37.5 -6.5t-57 -1 t-65.5 1.5t-64 1q-29 0 -57.5 -1.5t-51.5 -4.5t-37.5 -8t-14.5 -13q0 -26 4 -76.5t10 -116t14.5 -140l17.5 -148.5zM483 348q4 7 4 21q0 21 -9.5 43t-25.5 40t-37.5 29.5t-46.5 11.5q-20 0 -33 -21.5t-13 -52.5q0 -11 2.5 -24t8.5 -26q42 -1 78.5 -6.5t71.5 -14.5z" />
<glyph unicode="&#x645;" horiz-adv-x="716" arabic-form="final" d="M716 47q-29 0 -56 3.5t-52 15.5q-18 -42 -53.5 -69t-86.5 -27q-28 0 -51.5 15.5t-41 39.5t-27.5 51.5t-10 51.5q0 33 8 72.5t29 81.5q-44 26 -123 26q-57 0 -86.5 -19.5t-29.5 -42.5q0 -26 4.5 -76.5t12 -115t17 -139l18.5 -148.5l-74 -12l-19.5 152t-17 142t-12 118 t-4.5 79q0 30 12.5 58t36.5 49.5t59.5 34.5t82.5 13q77 0 128 -22l-13 21t-11 20l64 48l140 -238q18 -31 36 -48.5t37 -26.5t39.5 -11.5t43.5 -2.5v-94zM545 115q-22 23 -44 58t-48 83q-24 -37 -31.5 -69.5t-7.5 -58.5q0 -10 4 -21.5t11.5 -21t17.5 -16t21 -6.5 q28 0 47.5 14.5t29.5 37.5z" />
<glyph unicode="&#x645;" horiz-adv-x="532" arabic-form="initial" d="M226 179q44 -45 78.5 -57t51.5 -12q13 0 25 15t12 35q0 19 -6.5 38t-17 34t-23 24t-24.5 9q-20 0 -45 -26t-51 -60zM0 141q48 0 87.5 17.5t67.5 54.5l38 52t37.5 44.5t41.5 31.5t50 12t55 -14.5t48.5 -40t34.5 -61t13 -77.5q0 -50 -10.5 -76t-26 -37t-34.5 -12.5 t-36 -1.5q-33 0 -58 1.5t-47 9t-42.5 24.5t-44.5 48q-19 -16 -42 -29t-46 -22t-45.5 -13.5t-40.5 -4.5t-34 6v88h34z" />
<glyph unicode="&#x645;" horiz-adv-x="629" arabic-form="medial" d="M629 47q-21 0 -43.5 1.5t-46.5 9t-49 23t-51 44.5q-8 -54 -38.5 -86.5t-75.5 -32.5q-37 0 -80 28t-88 92q-30 -32 -68 -55.5t-89 -23.5q-18 0 -34 6v88h34q21 0 39 7t33.5 18t29.5 24.5t27 27.5l48 48.5t50 43.5t49.5 31t46.5 12q18 0 39 -15t41 -40l78 -96 q18 -21 37 -33t38 -18.5t37.5 -8t35.5 -1.5v-94zM214 186q31 -48 59.5 -67t51.5 -19q19 0 30.5 19t11.5 48q0 45 -15.5 68.5t-28.5 23.5q-21 0 -49.5 -22t-59.5 -51z" />
</font>
</defs>
</svg>
